<?xml version="1.0" encoding="utf-8"?>
<!-- Generator: Adobe Illustrator 24.0.3, SVG Export Plug-In . SVG Version: 6.00 Build 0)  -->
<svg version="1.1" id="Capa_1" xmlns="http://www.w3.org/2000/svg" xmlns:xlink="http://www.w3.org/1999/xlink" x="0px" y="0px"
	 width="176.5px" height="90px" viewBox="0 0 176.5 90" style="enable-background:new 0 0 176.5 90;" xml:space="preserve">
<style type="text/css">
	.st0{fill:#243366;}
	.st1{fill:#CC3B30;}
</style>
<g>
	<path class="st0" d="M78.7,46.9c1.3-10.7,10.2-19.4,19.9-19.4c4.3,0,8,1.7,10.7,4.4l0.5-3.5h13.1L118,65.2h-13.1l0.4-2.8
		c-3.3,2.5-7.1,4-11.2,4C84.3,66.4,77.4,57.7,78.7,46.9 M92.1,46.9c-0.6,4.2,2.5,7.6,6.7,7.6c4.3,0,8.2-3.4,8.7-7.6
		c0.6-4.2-2.5-7.6-6.7-7.6C96.5,39.3,92.6,42.7,92.1,46.9 M130.4,18h12.9l-1.2,10.8h7.4l-1.5,11.3h-7.3l-2.9,25.1h-13.5l3.2-25.1
		h-4.3l1.5-11.3h4.3L130.4,18z M48.3,65.2H62l2-16.9c2.8-13.1,14.4-7.1,14.4-7.1l1.8-12.9c-12.6,0-14.6,5.6-14.6,5.6l0.6-5.5H52.9
		L48.3,65.2z M23.7,23.5l-1.4,12.4c0,0,10.7,2.2,11.9-5.5C35.4,21.8,23.7,23.5,23.7,23.5 M4.1,65.2l6.4-52.9h22.9
		c0,0,15.5-1.2,15.5,16.4c0,17.7-17.1,19.1-17.1,19.1h-11l-2.1,17.4H4.1z"/>
	<g>
		<polygon class="st0" points="6.7,69.2 5.1,69.2 4.1,75.3 7.6,75.3 7.8,73.9 5.9,73.9 		"/>
		<path class="st0" d="M12.7,69c-1.8,0-3.6,1.3-3.9,3.1c-0.3,2,0.9,3.4,2.8,3.4c2,0,3.6-1.4,3.9-3.4C15.9,70.3,14.5,69,12.7,69z
			 M13.9,72.1c-0.2,1.1-1.1,1.8-2,1.8s-1.6-0.8-1.4-1.8c0.1-0.8,1-1.6,2-1.6C13.4,70.5,14.1,71.3,13.9,72.1z"/>
		<path class="st0" d="M19.4,70.3c0.4,0,0.7,0.2,1,0.4l0.8-1.2C20.7,69.2,20,69,19.4,69c-1.2,0-2.2,0.8-2.4,2.1
			c-0.2,1.2,0.4,1.4,1.4,1.7c0.3,0.1,0.9,0.3,0.9,0.7c-0.1,0.4-0.5,0.6-0.9,0.6c-0.5,0-1-0.3-1.3-0.6l-0.9,1.3
			c0.6,0.4,1.3,0.7,2,0.7c0.6,0,1.3-0.2,1.8-0.6c0.6-0.4,0.8-1,0.9-1.6c0.2-1-0.4-1.4-1.2-1.7l-0.4-0.1c-0.3-0.1-0.7-0.2-0.6-0.6
			C18.7,70.5,19.1,70.3,19.4,70.3z"/>
		<polygon class="st0" points="29,72.4 28.3,69.2 26.8,69.2 24.8,75.3 26.3,75.3 27.4,71.8 27.4,71.8 28.3,75.3 28.9,75.3 
			30.9,71.8 30.9,71.8 30.8,75.3 32.4,75.3 32.5,69.2 30.9,69.2 		"/>
		<path class="st0" d="M36.4,69.2L33,75.3h1.7l0.6-1.1h2.2l0.2,1.1h1.7l-1.3-6.1H36.4z M35.9,73l1-1.9h0l0.3,1.9H35.9z"/>
		<polygon class="st0" points="40.4,75.3 43.9,75.3 44.1,73.9 42.2,73.9 42.4,72.9 44.2,72.9 44.4,71.5 42.6,71.5 42.8,70.5 
			44.7,70.5 44.9,69.2 41.4,69.2 		"/>
		<path class="st0" d="M48.5,70.3c0.4,0,0.7,0.2,1,0.4l0.8-1.2c-0.5-0.3-1.2-0.5-1.8-0.5c-1.2,0-2.2,0.8-2.4,2.1
			c-0.2,1.2,0.4,1.4,1.4,1.7c0.3,0.1,0.9,0.3,0.9,0.7c-0.1,0.4-0.5,0.6-0.9,0.6c-0.5,0-1-0.3-1.3-0.6l-0.9,1.3
			c0.6,0.4,1.3,0.7,2,0.7c0.6,0,1.3-0.2,1.8-0.6c0.6-0.4,0.8-1,0.9-1.6c0.2-1-0.4-1.4-1.2-1.7l-0.4-0.1c-0.3-0.1-0.7-0.2-0.6-0.6
			C47.8,70.5,48.2,70.3,48.5,70.3z"/>
		<polygon class="st0" points="51.2,70.5 52.5,70.5 51.7,75.3 53.3,75.3 54.1,70.5 55.4,70.5 55.6,69.2 51.4,69.2 		"/>
		<path class="st0" d="M59.1,69.2h-2.4l-1,6.1h1.6l0.4-2.4h0l1.1,2.4h2l-1.5-2.5c0.9-0.2,1.5-0.9,1.6-1.7
			C61.1,69.7,60.3,69.2,59.1,69.2z M59.2,71.1c-0.1,0.7-0.7,0.8-1.2,0.8h-0.2l0.2-1.5h0.2C58.8,70.4,59.3,70.5,59.2,71.1z"/>
		<path class="st0" d="M65.8,69c-1.8,0-3.6,1.3-3.9,3.1c-0.3,2,0.9,3.4,2.8,3.4c2,0,3.6-1.4,3.9-3.4C69,70.3,67.6,69,65.8,69z
			 M67,72.1c-0.2,1.1-1.1,1.8-2,1.8c-0.9,0-1.6-0.8-1.4-1.8c0.1-0.8,1-1.6,2-1.6C66.5,70.5,67.2,71.3,67,72.1z"/>
		<path class="st0" d="M72.5,70.3c0.4,0,0.7,0.2,1,0.4l0.8-1.2c-0.5-0.3-1.2-0.5-1.8-0.5c-1.2,0-2.2,0.8-2.4,2.1
			c-0.2,1.2,0.4,1.4,1.4,1.7c0.3,0.1,0.9,0.3,0.9,0.7c-0.1,0.4-0.5,0.6-0.9,0.6c-0.5,0-1-0.3-1.3-0.6l-0.9,1.3
			c0.6,0.4,1.3,0.7,2,0.7c0.6,0,1.3-0.2,1.8-0.6c0.6-0.4,0.8-1,0.9-1.6c0.2-1-0.4-1.4-1.2-1.7l-0.4-0.1c-0.3-0.1-0.7-0.2-0.6-0.6
			C71.8,70.5,72.2,70.3,72.5,70.3z"/>
		<path class="st0" d="M81.4,69.2h-2.3l-1,6.1h2.3c1.7,0,3.3-1.3,3.6-3.1C84.3,70.5,83.1,69.2,81.4,69.2z M82.4,72.2
			c-0.2,1.2-1.1,1.7-2,1.7H80l0.5-3.4h0.4C82,70.5,82.6,71.1,82.4,72.2z"/>
		<polygon class="st0" points="84.8,75.3 88.3,75.3 88.5,73.9 86.6,73.9 86.8,72.9 88.6,72.9 88.8,71.5 87,71.5 87.2,70.5 
			89.1,70.5 89.3,69.2 85.8,69.2 		"/>
		<polygon class="st0" points="92.3,69.2 90.8,69.2 89.8,75.3 93.3,75.3 93.5,73.9 91.6,73.9 		"/>
		<polygon class="st0" points="102.5,72.9 102.5,72.9 100.1,69.2 98.6,69.2 97.6,75.3 99.2,75.3 99.8,71.5 99.8,71.5 102.1,75.3 
			103.7,75.3 104.7,69.2 103.1,69.2 		"/>
		<path class="st0" d="M109.3,69c-1.8,0-3.6,1.3-3.9,3.1c-0.3,2,0.9,3.4,2.8,3.4c2,0,3.6-1.4,3.9-3.4C112.5,70.3,111.1,69,109.3,69z
			 M110.5,72.1c-0.2,1.1-1.1,1.8-2,1.8c-1,0-1.6-0.8-1.4-1.8c0.1-0.8,1-1.6,2-1.6C110,70.5,110.7,71.3,110.5,72.1z"/>
		<path class="st0" d="M116.3,69.2h-2.4l-1,6.1h1.6l0.4-2.4h0l1.1,2.4h2l-1.5-2.5c0.9-0.2,1.5-0.9,1.6-1.7
			C118.3,69.7,117.5,69.2,116.3,69.2z M116.4,71.1c-0.1,0.7-0.7,0.8-1.2,0.8h-0.2l0.2-1.5h0.2C116,70.4,116.5,70.5,116.4,71.1z"/>
		<polygon class="st0" points="119.2,70.5 120.6,70.5 119.8,75.3 121.4,75.3 122.1,70.5 123.5,70.5 123.7,69.2 119.4,69.2 		"/>
		<polygon class="st0" points="128,70.5 128.2,69.2 124.7,69.2 123.8,75.3 127.3,75.3 127.5,73.9 125.6,73.9 125.7,72.9 127.5,72.9 
			127.8,71.5 126,71.5 126.1,70.5 		"/>
	</g>
	<g>
		<polygon class="st0" points="112.3,17.8 113,17.8 114.9,16.1 113.4,16.1 		"/>
		<polygon class="st0" points="111,25.6 113,25.6 114.1,18.5 112.1,18.5 		"/>
		<polygon class="st0" points="53.2,25.7 55.1,25.7 55.6,22.9 57.7,22.9 57.9,21.3 55.8,21.3 56,20.1 58.2,20.1 58.5,18.5 
			54.4,18.5 		"/>
		<polygon class="st0" points="60,25.7 64.1,25.7 64.3,24.1 62.1,24.1 62.3,22.9 64.4,22.9 64.6,21.3 62.6,21.3 62.7,20.1 65,20.1 
			65.2,18.5 61.1,18.5 		"/>
		<path class="st0" d="M72.9,20.6c0-0.4-0.1-0.8-0.3-1.1c-0.2-0.3-0.5-0.5-0.8-0.7c-0.2-0.1-0.4-0.2-0.7-0.2c-0.3,0-0.7-0.1-1.3-0.1
			h-1.9l-1.1,7.2h1.9l0.4-2.7l1.4,2.7h2.2l-1.7-2.8c0.6-0.1,1.1-0.4,1.5-0.8C72.7,21.7,72.9,21.2,72.9,20.6z M70.7,21.5
			c-0.2,0.2-0.5,0.3-0.9,0.3h-0.6l0.3-1.9h0.3c0.4,0,0.7,0.1,0.9,0.2c0.2,0.1,0.3,0.4,0.3,0.7C71,21.1,70.9,21.3,70.7,21.5z"/>
		<path class="st0" d="M80.8,20.6c0-0.4-0.1-0.8-0.3-1.1c-0.2-0.3-0.5-0.5-0.8-0.7c-0.2-0.1-0.4-0.2-0.7-0.2c-0.3,0-0.7-0.1-1.3-0.1
			h-1.9l-1.1,7.2h1.9l0.4-2.7l1.4,2.7h2.2l-1.7-2.8c0.6-0.1,1.1-0.4,1.5-0.8C80.7,21.7,80.8,21.2,80.8,20.6z M78.7,21.5
			c-0.2,0.2-0.5,0.3-0.9,0.3h-0.6l0.3-1.9h0.3c0.4,0,0.7,0.1,0.9,0.2s0.3,0.4,0.3,0.7C79,21.1,78.9,21.3,78.7,21.5z"/>
		<polygon class="st0" points="82.6,25.7 86.8,25.7 87,24.1 84.8,24.1 85,22.9 87.1,22.9 87.3,21.3 85.2,21.3 85.4,20.1 87.6,20.1 
			87.9,18.5 83.8,18.5 		"/>
		<polygon class="st0" points="89.7,20.1 91.3,20.1 90.4,25.7 92.3,25.7 93.2,20.1 94.7,20.1 95,18.5 89.9,18.5 		"/>
		<polygon class="st0" points="96.2,25.7 100.3,25.7 100.6,24.1 98.4,24.1 98.6,22.9 100.6,22.9 100.9,21.3 98.8,21.3 99,20.1 
			101.2,20.1 101.5,18.5 97.3,18.5 		"/>
		<path class="st0" d="M109.1,20.6c0-0.4-0.1-0.8-0.3-1.1c-0.2-0.3-0.5-0.5-0.8-0.7c-0.2-0.1-0.4-0.2-0.7-0.2
			c-0.3,0-0.7-0.1-1.3-0.1h-1.9l-1.1,7.2h1.9l0.4-2.7l1.4,2.7h2.2l-1.7-2.8c0.6-0.1,1.1-0.4,1.5-0.8C109,21.7,109.1,21.2,109.1,20.6
			z M107,21.5c-0.2,0.2-0.5,0.3-0.9,0.3h-0.6l0.3-1.9h0.3c0.4,0,0.7,0.1,0.9,0.2c0.2,0.1,0.3,0.4,0.3,0.7
			C107.3,21.1,107.2,21.3,107,21.5z"/>
		<path class="st0" d="M121,18.5h-2.4l-3.6,7.2h2.1l0.7-1.4h2.5l0.3,1.4h1.9L121,18.5z M118.5,22.7l0.8-1.6c0-0.1,0.1-0.2,0.1-0.3
			s0.1-0.3,0.2-0.5c0,0.1,0,0.2,0,0.4c0,0.1,0,0.3,0.1,0.4l0.3,1.7L118.5,22.7L118.5,22.7z"/>
	</g>
	<path class="st1" d="M140.9,61.9c0-0.9,0.3-1.7,1-2.3c0.6-0.6,1.4-1,2.3-1c0.9,0,1.7,0.3,2.3,0.9c0.6,0.6,1,1.4,1,2.3
		c0,0.9-0.3,1.7-0.9,2.4c-0.6,0.6-1.4,1-2.3,1c-0.9,0-1.7-0.3-2.3-1C141.2,63.5,140.9,62.8,140.9,61.9"/>
	<path class="st1" d="M164.8,54.1c-0.6-0.6-1.2-1.1-1.8-1.4s-1.3-0.5-1.9-0.5c-1.1,0-2.1,0.4-2.9,1.3s-1.2,2-1.2,3.3
		c0,1.1,0.3,2,0.9,2.6s1.4,1,2.4,1c0.7,0,1.3-0.1,1.9-0.3c0.6-0.2,1.2-0.6,1.8-1l-0.9,5.4c-0.8,0.3-1.5,0.5-2.2,0.6
		c-0.7,0.1-1.4,0.2-2.1,0.2c-2.3,0-4.2-0.8-5.7-2.3c-1.4-1.5-2.2-3.5-2.2-5.9c0-2.8,0.9-5.1,2.7-6.9s4.1-2.7,7-2.7
		c0.9,0,1.8,0.1,2.6,0.4c0.8,0.3,1.6,0.7,2.3,1.2L164.8,54.1z"/>
	<polygon class="st1" points="170.6,39.8 176.5,39.8 172.4,65.1 166.6,65.1 	"/>
	<path class="st1" d="M171.3,72.8c0,0-0.2,0.7-1.3,1.1c0,0-1,0.4-2,0.4c-1.1,0-1.2,0-1.9-0.1c0,0-1.1-0.2-1.9-0.4l0.9-1.8
		c0,0,1.2,0.8,2.2,0.7c0,0,0.4,0,0.6-0.1c0,0,0.3-0.3-0.1-0.4c0,0-0.3-0.1-0.8-0.1c0,0-1.1-0.1-1.9-0.6c-0.5-0.3-0.7-0.8-0.7-1.2
		c0,0-0.1-1.4,1.7-2c0,0,1.2-0.5,2.5-0.3c0,0,1.5,0.1,2.4,0.5l-0.9,1.7c0,0-1-0.5-1.5-0.5c-0.1,0-1-0.1-1,0.3c0,0-0.1,0.3,0.3,0.3
		c0,0,1.5,0.2,1.7,0.3c0,0,1,0.3,1.4,0.8C171.2,71.3,171.7,72,171.3,72.8 M162.4,74.4h-3.3v-4.3h-1.8V68h6.8v2.1h-1.8L162.4,74.4
		L162.4,74.4z M155,74.4l-0.5-3.5l-1.4,3.5h-1.9l-1.4-3.5l-0.5,3.5h-3.2l1.4-6.4h3.4l1.2,3.3l1.3-3.3h3.2l1.5,6.4H155z M132.1,75.3
		h40.4V67h-40.4V75.3z"/>
</g>
</svg>
