<?xml version="1.0" encoding="utf-8"?>
<!-- Generator: Adobe Illustrator 24.0.3, SVG Export Plug-In . SVG Version: 6.00 Build 0)  -->
<svg version="1.1" id="Capa_1" xmlns="http://www.w3.org/2000/svg" xmlns:xlink="http://www.w3.org/1999/xlink" x="0px" y="0px"
	 width="200px" height="75.849px" viewBox="0 0 200 75.849" style="enable-background:new 0 0 200 75.849;" xml:space="preserve">
<style type="text/css">
	.st0{fill:#233466;}
	.st1{fill:#D64339;}
</style>
<g>
	<g>
		<path class="st0" d="M31.805,9.676v26.599c0,1.903-1.428,3.368-3.299,3.368c-1.92,0-3.348-1.464-3.348-3.368v-15.91l-6.105,9.517
			c-0.936,1.464-1.822,2.098-3.151,2.098c-1.28,0-2.216-0.634-3.151-2.098l-6.105-9.615v16.008c0,1.903-1.428,3.368-3.299,3.368
			C1.428,39.642,0,38.178,0,36.275V9.676C0,7.724,1.379,6.26,3.249,6.26c1.428,0,2.363,0.683,3.496,2.538l9.157,14.397L25.06,8.798
			c1.182-1.855,2.068-2.538,3.496-2.538C30.426,6.26,31.805,7.724,31.805,9.676z"/>
		<path class="st0" d="M37.073,28.417V17.68c0-1.903,1.428-3.319,3.348-3.319c1.871,0,3.299,1.415,3.299,3.319v11.274
			c0,2.684,1.92,4.636,4.628,4.636c2.659,0,4.529-1.952,4.529-4.636V17.68c0-1.903,1.379-3.319,3.348-3.319
			c1.871,0,3.299,1.415,3.299,3.319v10.737c0,6.637-4.628,11.225-11.176,11.225C41.701,39.642,37.073,35.055,37.073,28.417z"/>
		<path class="st0" d="M87.487,25.684v0.146c0,2.05-1.477,3.368-3.643,3.368H69.96c0.788,3.026,3.249,4.783,6.843,4.783
			c1.772,0,3.594-0.488,5.071-1.415c0.492-0.293,0.936-0.439,1.428-0.439c1.526,0,2.708,1.123,2.708,2.636
			c0,1.074-0.492,1.855-1.674,2.636c-2.216,1.464-4.874,2.245-7.73,2.245c-7.68,0-13.342-5.417-13.342-12.64
			c0-7.174,5.465-12.64,12.653-12.64C82.564,14.361,87.487,19.144,87.487,25.684z M69.96,24.562h11.078
			c-0.098-2.88-2.166-4.88-5.268-4.88C72.865,19.681,70.699,21.584,69.96,24.562z M74.046,8.554c0-0.488,0.197-1.025,0.394-1.464
			l2.314-5.222c0.542-1.22,1.871-1.903,3.052-1.903c1.92,0,3.299,1.562,3.299,3.319c0,0.586-0.148,1.171-0.542,1.806l-3.053,5.027
			c-0.591,0.927-1.575,1.562-2.609,1.513C75.031,11.531,73.948,10.067,74.046,8.554z"/>
		<path class="st0" d="M113.63,17.534c0,0.537-0.148,1.025-0.492,1.757l-9.157,18.302c-0.64,1.318-1.772,2.05-3.053,2.05
			c-1.329,0-2.412-0.732-3.052-2.05l-9.157-18.302c-0.394-0.732-0.542-1.22-0.542-1.757c0-1.708,1.477-3.172,3.249-3.172
			c1.28,0,2.265,0.586,2.905,1.854l6.597,13.47l6.548-13.47c0.64-1.269,1.625-1.854,2.954-1.854
			C112.153,14.361,113.63,15.826,113.63,17.534z"/>
		<path class="st0" d="M138.592,25.684v0.146c0,2.05-1.477,3.368-3.643,3.368h-13.884c0.788,3.026,3.249,4.783,6.843,4.783
			c1.772,0,3.594-0.488,5.071-1.415c0.492-0.293,0.936-0.439,1.428-0.439c1.526,0,2.708,1.123,2.708,2.636
			c0,1.074-0.492,1.855-1.674,2.636c-2.216,1.464-4.874,2.245-7.73,2.245c-7.68,0-13.342-5.417-13.342-12.64
			c0-7.174,5.465-12.64,12.653-12.64C133.668,14.361,138.592,19.144,138.592,25.684z M121.064,24.562h11.078
			c-0.098-2.88-2.166-4.88-5.268-4.88C123.969,19.681,121.803,21.584,121.064,24.562z"/>
		<path class="st0" d="M158.727,36.372c0,1.22-0.64,2.147-1.674,2.635c-0.936,0.39-2.019,0.634-3.446,0.634
			c-6.351,0-9.748-3.172-9.748-9.078V20.462h-1.379c-1.625,0-2.856-1.171-2.856-2.782c0-1.61,1.231-2.782,2.856-2.782h1.379v-3.319
			c0-1.903,1.378-3.319,3.348-3.319c1.871,0,3.299,1.415,3.299,3.319v3.319h4.48c1.625,0,2.806,1.171,2.806,2.782
			c0,1.611-1.182,2.782-2.806,2.782h-4.48v9.517c0,2.684,1.28,3.758,4.382,3.758c0.394,0,0.689-0.049,0.935-0.049
			C157.595,33.688,158.727,34.762,158.727,36.372z"/>
		<path class="st0" d="M184.132,25.684v0.146c0,2.05-1.477,3.368-3.643,3.368h-13.884c0.788,3.026,3.249,4.783,6.843,4.783
			c1.772,0,3.594-0.488,5.071-1.415c0.492-0.293,0.936-0.439,1.428-0.439c1.526,0,2.708,1.123,2.708,2.636
			c0,1.074-0.492,1.855-1.674,2.636c-2.216,1.464-4.874,2.245-7.73,2.245c-7.68,0-13.342-5.417-13.342-12.64
			c0-7.174,5.465-12.64,12.653-12.64C179.208,14.361,184.132,19.144,184.132,25.684z M166.604,24.562h11.078
			c-0.098-2.88-2.166-4.88-5.268-4.88C169.509,19.681,167.343,21.584,166.604,24.562z"/>
	</g>
	<g>
		<path class="st1" d="M22.072,47.067c1.25,0,1.875,0.677,1.875,2.03c0,1.19-0.451,2.388-1.353,3.594
			c-0.696,0.913-1.305,1.369-1.827,1.369c-0.443,0-0.665-0.261-0.665-0.783c0-0.277,0.063-0.497,0.19-0.66
			c0.047-0.065,0.237-0.253,0.57-0.562c0.285-0.277,0.577-0.693,0.878-1.247c0.205-0.375,0.308-0.676,0.308-0.905
			c0-0.261-0.142-0.391-0.427-0.391c-0.332,0-0.839,0.269-1.519,0.807c-1.076,0.864-2.152,2.217-3.227,4.059
			c-1.108,1.924-1.661,3.44-1.661,4.548c0,0.359,0.103,0.677,0.309,0.954c0.3,0.424,0.704,0.636,1.21,0.636
			c0.997,0,2.175-0.636,3.536-1.907c1.155-1.092,2.128-2.184,2.919-3.277c0.411-0.603,0.767-0.905,1.068-0.905
			c0.174,0,0.332,0.082,0.475,0.245c0.127,0.163,0.19,0.326,0.19,0.489c0,0.603-0.752,1.777-2.255,3.521
			c-2.389,2.739-4.557,4.108-6.503,4.108c-1.171,0-2.065-0.432-2.682-1.296c-0.443-0.636-0.664-1.386-0.664-2.25
			c0-1.695,0.68-3.66,2.041-5.893c1.313-2.135,2.832-3.855,4.557-5.16C20.426,47.443,21.312,47.067,22.072,47.067z"/>
		<path class="st1" d="M35.931,46.456c1.297,0,1.946,0.815,1.946,2.445c0,2.168-0.973,4.915-2.919,8.241
			c-2.12,3.603-4.169,5.404-6.146,5.404c-0.917,0-1.59-0.44-2.017-1.321c-0.221-0.44-0.332-0.97-0.332-1.589
			c0-2.087,0.696-4.353,2.088-6.798c1.297-2.266,2.824-4.026,4.58-5.282C34.159,46.823,35.092,46.456,35.931,46.456z M33.463,55.699
			c-0.396-0.326-0.593-0.578-0.593-0.758c0-0.13,0.253-0.489,0.759-1.076c1.424-1.646,2.136-2.975,2.136-3.986
			c0-0.13-0.04-0.261-0.119-0.391c-0.127-0.245-0.325-0.367-0.593-0.367c-0.507,0-1.25,0.505-2.231,1.516
			c-1.266,1.304-2.231,2.649-2.895,4.035c-0.775,1.581-1.163,2.894-1.163,3.937c0,0.277,0.071,0.522,0.214,0.734
			c0.206,0.293,0.467,0.44,0.783,0.44c0.759,0,1.574-0.587,2.444-1.761c0.38-0.489,0.688-0.994,0.925-1.516
			C33.368,55.985,33.479,55.716,33.463,55.699z"/>
		<path class="st1" d="M42.434,53.841c0.206-0.196,0.403-0.391,0.593-0.587c3.306-3.326,5.521-4.988,6.645-4.988
			c0.617,0,0.926,0.351,0.926,1.051c0,0.489-0.277,1.068-0.831,1.736c-3.022,3.635-4.533,6.839-4.533,9.61
			c0,0.897,0.237,1.753,0.712,2.568c0.221,0.375,0.332,0.669,0.332,0.88c0,0.196-0.095,0.383-0.285,0.562
			c-0.206,0.228-0.451,0.342-0.736,0.342c-0.649,0-1.195-0.424-1.637-1.272c-0.427-0.798-0.641-1.769-0.641-2.91
			c0-2.201,0.807-4.638,2.421-7.312c-2.152,1.418-4.153,3.929-6.004,7.532c-0.475,0.864-0.981,1.296-1.519,1.296
			c-0.269,0-0.49-0.098-0.665-0.294c-0.221-0.228-0.332-0.521-0.332-0.88c0-0.88,0.973-3.187,2.919-6.92
			c1.044-2.021,1.867-3.488,2.468-4.402c0.601-0.896,1.115-1.345,1.543-1.345c0.206,0,0.403,0.098,0.593,0.293
			c0.221,0.228,0.332,0.489,0.332,0.783c0,0.359-0.23,0.872-0.688,1.541C43.383,52.121,42.845,53.026,42.434,53.841z"/>
		<path class="st1" d="M71.292,47.067c1.25,0,1.875,0.677,1.875,2.03c0,1.19-0.451,2.388-1.353,3.594
			c-0.696,0.913-1.305,1.369-1.827,1.369c-0.443,0-0.665-0.261-0.665-0.783c0-0.277,0.063-0.497,0.19-0.66
			c0.047-0.065,0.237-0.253,0.57-0.562c0.285-0.277,0.577-0.693,0.878-1.247c0.205-0.375,0.308-0.676,0.308-0.905
			c0-0.261-0.142-0.391-0.427-0.391c-0.332,0-0.839,0.269-1.519,0.807c-1.076,0.864-2.152,2.217-3.227,4.059
			c-1.108,1.924-1.661,3.44-1.661,4.548c0,0.359,0.103,0.677,0.309,0.954c0.3,0.424,0.704,0.636,1.21,0.636
			c0.997,0,2.175-0.636,3.536-1.907c1.155-1.092,2.128-2.184,2.919-3.277c0.411-0.603,0.767-0.905,1.068-0.905
			c0.174,0,0.332,0.082,0.475,0.245c0.127,0.163,0.19,0.326,0.19,0.489c0,0.603-0.752,1.777-2.255,3.521
			c-2.389,2.739-4.557,4.108-6.503,4.108c-1.171,0-2.065-0.432-2.682-1.296c-0.443-0.636-0.664-1.386-0.664-2.25
			c0-1.695,0.68-3.66,2.041-5.893c1.313-2.135,2.832-3.855,4.557-5.16C69.646,47.443,70.532,47.067,71.292,47.067z"/>
		<path class="st1" d="M85.151,46.456c1.297,0,1.946,0.815,1.946,2.445c0,2.168-0.973,4.915-2.919,8.241
			c-2.12,3.603-4.169,5.404-6.146,5.404c-0.917,0-1.59-0.44-2.017-1.321c-0.221-0.44-0.332-0.97-0.332-1.589
			c0-2.087,0.696-4.353,2.088-6.798c1.297-2.266,2.824-4.026,4.58-5.282C83.379,46.823,84.313,46.456,85.151,46.456z M82.683,55.699
			c-0.396-0.326-0.593-0.578-0.593-0.758c0-0.13,0.253-0.489,0.759-1.076c1.424-1.646,2.136-2.975,2.136-3.986
			c0-0.13-0.04-0.261-0.119-0.391c-0.127-0.245-0.325-0.367-0.593-0.367c-0.507,0-1.25,0.505-2.231,1.516
			c-1.266,1.304-2.231,2.649-2.895,4.035c-0.775,1.581-1.163,2.894-1.163,3.937c0,0.277,0.071,0.522,0.214,0.734
			c0.206,0.293,0.467,0.44,0.783,0.44c0.759,0,1.574-0.587,2.444-1.761c0.38-0.489,0.688-0.994,0.925-1.516
			C82.588,55.985,82.699,55.716,82.683,55.699z"/>
		<path class="st1" d="M91.654,53.841c0.206-0.196,0.403-0.391,0.593-0.587c3.306-3.326,5.521-4.988,6.645-4.988
			c0.617,0,0.926,0.351,0.926,1.051c0,0.489-0.277,1.068-0.831,1.736c-3.022,3.635-4.533,6.839-4.533,9.61
			c0,0.897,0.237,1.753,0.712,2.568c0.221,0.375,0.332,0.669,0.332,0.88c0,0.196-0.095,0.383-0.285,0.562
			c-0.206,0.228-0.451,0.342-0.736,0.342c-0.649,0-1.195-0.424-1.637-1.272c-0.427-0.798-0.641-1.769-0.641-2.91
			c0-2.201,0.807-4.638,2.421-7.312c-2.152,1.418-4.153,3.929-6.004,7.532c-0.475,0.864-0.981,1.296-1.519,1.296
			c-0.269,0-0.49-0.098-0.665-0.294c-0.221-0.228-0.332-0.521-0.332-0.88c0-0.88,0.973-3.187,2.919-6.92
			c1.044-2.021,1.867-3.488,2.468-4.402c0.601-0.896,1.115-1.345,1.543-1.345c0.206,0,0.403,0.098,0.593,0.293
			c0.221,0.228,0.332,0.489,0.332,0.783c0,0.359-0.23,0.872-0.688,1.541C92.603,52.121,92.065,53.026,91.654,53.841z"/>
		<path class="st1" d="M103.686,50.686c2.421-5.38,4.786-9.757,7.096-13.131c1.566-2.282,2.863-3.945,3.892-4.988
			c0.712-0.734,1.321-1.1,1.827-1.1c0.19,0,0.356,0.065,0.498,0.196c0.221,0.163,0.332,0.383,0.332,0.66
			c0,0.359-0.277,0.872-0.831,1.541c-3.497,4.108-6.661,9.032-9.493,14.77c2.531-0.994,4.295-1.492,5.292-1.492
			c0.727,0,1.329,0.188,1.804,0.562c0.49,0.391,0.736,0.84,0.736,1.345c0,0.261-0.087,0.498-0.261,0.709
			c-0.237,0.31-0.546,0.465-0.925,0.465c-0.269,0-0.799-0.228-1.59-0.685c-0.222-0.114-0.507-0.171-0.854-0.171
			c-1.582,0-3.481,0.742-5.696,2.225c0.949,0.457,1.622,1.06,2.017,1.81c0.538,1.06,0.807,2.364,0.807,3.912
			c0,3.994-1.155,8.208-3.465,12.642c-0.997,1.891-1.962,3.326-2.895,4.304c-0.997,1.06-2.017,1.59-3.061,1.59
			c-0.791,0-1.432-0.391-1.922-1.174c-0.395-0.652-0.593-1.541-0.593-2.665c0-2.413,0.886-6.04,2.658-10.882
			c0.222-0.587,0.854-2.095,1.899-4.524c0.269-0.603,0.53-1.247,0.783-1.932c-0.127,0.033-0.246,0.049-0.356,0.049
			c-0.427,0-0.641-0.245-0.641-0.734C100.743,53.124,101.724,52.023,103.686,50.686z M104.493,53.89
			c-0.886,1.728-2.057,4.516-3.512,8.363c-1.503,3.928-2.254,6.977-2.254,9.145c0,0.424,0.103,0.799,0.308,1.125
			c0.222,0.326,0.483,0.489,0.783,0.489c0.981,0,2.27-1.696,3.868-5.086c1.804-3.782,2.705-7.246,2.705-10.393
			c0-1.223-0.229-2.143-0.688-2.763C105.529,54.526,105.125,54.232,104.493,53.89z"/>
		<path class="st1" d="M118.4,47.581c0.269,0,0.49,0.106,0.665,0.318c0.127,0.18,0.19,0.359,0.19,0.538
			c0,0.294-0.23,0.783-0.688,1.467c-1.646,2.625-2.816,4.785-3.512,6.48c-0.744,1.745-1.4,3.538-1.97,5.38
			c-0.253,0.815-0.649,1.223-1.187,1.223c-0.316,0-0.57-0.13-0.759-0.391c-0.174-0.212-0.261-0.44-0.261-0.685
			c0-0.489,0.507-2.119,1.519-4.891c0.791-2.184,2.073-4.597,3.845-7.238c0.57-0.864,0.997-1.443,1.282-1.736
			C117.806,47.736,118.099,47.581,118.4,47.581z M122.909,38.509c0.712,0,1.068,0.375,1.068,1.125c0,0.685-0.348,1.443-1.044,2.274
			c-0.664,0.799-1.305,1.198-1.922,1.198c-0.301,0-0.546-0.114-0.736-0.342c-0.19-0.212-0.285-0.473-0.285-0.783
			c0-0.783,0.419-1.614,1.258-2.494C121.864,38.835,122.418,38.509,122.909,38.509z"/>
		<path class="st1" d="M125.567,58.193c-0.522,0.946-1.036,1.745-1.543,2.396c-0.997,1.272-1.986,1.907-2.967,1.907
			c-0.854,0-1.519-0.416-1.994-1.247c-0.3-0.538-0.451-1.174-0.451-1.907c0-1.81,0.554-3.806,1.661-5.991
			c1.234-2.429,2.721-4.295,4.462-5.6c1.139-0.847,2.239-1.272,3.299-1.272c0.665,0,1.218,0.212,1.661,0.636
			c0.38,0.375,0.57,0.799,0.57,1.272c0,0.359-0.135,0.856-0.403,1.492c0.237,0.342,0.356,0.644,0.356,0.905
			c0,0.342-0.222,0.905-0.664,1.687c-0.459,0.799-0.918,1.858-1.376,3.179c-0.491,1.402-0.736,2.527-0.736,3.375
			c0,0.685,0.198,1.247,0.593,1.687c0.11,0.114,0.435,0.302,0.973,0.562c0.395,0.196,0.593,0.538,0.593,1.027
			c0,0.31-0.111,0.562-0.332,0.758c-0.237,0.212-0.514,0.318-0.831,0.318c-0.854,0-1.59-0.391-2.207-1.174
			c-0.507-0.636-0.759-1.434-0.759-2.396C125.472,59.481,125.503,58.944,125.567,58.193z M128.533,50.148
			c-0.19-0.358-0.396-0.623-0.617-0.795c-0.222-0.171-0.459-0.257-0.712-0.257c-1.203,0-2.508,1.084-3.916,3.252
			c-1.551,2.396-2.326,4.426-2.326,6.089c0,0.408,0.075,0.718,0.225,0.929c0.15,0.212,0.376,0.318,0.676,0.318
			c0.759,0,1.645-0.831,2.658-2.494c0.57-0.913,1.273-2.258,2.112-4.035c0.554-1.157,0.957-1.923,1.21-2.299
			C127.971,50.662,128.201,50.426,128.533,50.148z"/>
		<path class="st1" d="M135.558,53.841c0.206-0.196,0.403-0.391,0.593-0.587c3.306-3.326,5.521-4.988,6.645-4.988
			c0.617,0,0.926,0.351,0.926,1.051c0,0.489-0.277,1.068-0.831,1.736c-3.022,3.635-4.533,6.839-4.533,9.61
			c0,0.897,0.237,1.753,0.712,2.568c0.221,0.375,0.332,0.669,0.332,0.88c0,0.196-0.095,0.383-0.285,0.562
			c-0.206,0.228-0.451,0.342-0.736,0.342c-0.649,0-1.195-0.424-1.637-1.272c-0.427-0.798-0.641-1.769-0.641-2.91
			c0-2.201,0.807-4.638,2.421-7.312c-2.152,1.418-4.153,3.929-6.004,7.532c-0.475,0.864-0.981,1.296-1.519,1.296
			c-0.269,0-0.49-0.098-0.665-0.294c-0.221-0.228-0.332-0.521-0.332-0.88c0-0.88,0.973-3.187,2.919-6.92
			c1.044-2.021,1.867-3.488,2.468-4.402c0.601-0.896,1.115-1.345,1.543-1.345c0.206,0,0.403,0.098,0.593,0.293
			c0.221,0.228,0.332,0.489,0.332,0.783c0,0.359-0.23,0.872-0.688,1.541C136.507,52.121,135.969,53.026,135.558,53.841z"/>
		<path class="st1" d="M145.454,59.392c1.439-0.505,2.705-0.758,3.797-0.758c1.835,0,2.753,0.489,2.753,1.467
			c0,0.293-0.111,0.562-0.332,0.807c-0.222,0.245-0.475,0.367-0.759,0.367c-0.174,0-0.546-0.073-1.115-0.22
			c-0.332-0.098-0.657-0.147-0.973-0.147c-1.345,0-2.619,0.293-3.821,0.88c-0.854,0.424-1.424,0.636-1.709,0.636
			c-0.364,0-0.68-0.122-0.949-0.367c-0.253-0.228-0.38-0.481-0.38-0.758c0-0.668,0.775-2.013,2.326-4.035
			c2.326-2.983,4.786-5.526,7.381-7.629c-1.725,0.212-2.903,0.318-3.536,0.318c-1.519,0-2.278-0.465-2.278-1.394
			c0-0.293,0.095-0.538,0.285-0.734c0.174-0.179,0.372-0.269,0.593-0.269c0.19,0,0.609,0.057,1.258,0.171
			c0.253,0.049,0.641,0.073,1.163,0.073c1.361,0,2.682-0.155,3.963-0.465c0.49-0.114,0.91-0.171,1.258-0.171
			c0.395,0,0.727,0.147,0.997,0.44c0.205,0.212,0.308,0.473,0.308,0.782c0,0.538-0.443,1.125-1.329,1.761
			c-2.595,2.119-4.422,3.741-5.482,4.866C147.368,56.661,146.229,58.12,145.454,59.392z"/>
		<path class="st1" d="M161.307,58.193c-0.522,0.946-1.036,1.745-1.543,2.396c-0.997,1.272-1.986,1.907-2.967,1.907
			c-0.854,0-1.519-0.416-1.994-1.247c-0.3-0.538-0.451-1.174-0.451-1.907c0-1.81,0.554-3.806,1.661-5.991
			c1.234-2.429,2.721-4.295,4.462-5.6c1.139-0.847,2.239-1.272,3.299-1.272c0.665,0,1.218,0.212,1.661,0.636
			c0.38,0.375,0.57,0.799,0.57,1.272c0,0.359-0.135,0.856-0.404,1.492c0.237,0.342,0.356,0.644,0.356,0.905
			c0,0.342-0.222,0.905-0.664,1.687c-0.459,0.799-0.918,1.858-1.376,3.179c-0.491,1.402-0.736,2.527-0.736,3.375
			c0,0.685,0.198,1.247,0.593,1.687c0.11,0.114,0.435,0.302,0.973,0.562c0.395,0.196,0.593,0.538,0.593,1.027
			c0,0.31-0.111,0.562-0.332,0.758c-0.237,0.212-0.514,0.318-0.831,0.318c-0.854,0-1.59-0.391-2.207-1.174
			c-0.507-0.636-0.759-1.434-0.759-2.396C161.212,59.481,161.244,58.944,161.307,58.193z M164.274,50.148
			c-0.19-0.358-0.396-0.623-0.617-0.795c-0.222-0.171-0.459-0.257-0.712-0.257c-1.203,0-2.508,1.084-3.916,3.252
			c-1.551,2.396-2.326,4.426-2.326,6.089c0,0.408,0.075,0.718,0.225,0.929c0.15,0.212,0.376,0.318,0.676,0.318
			c0.759,0,1.645-0.831,2.658-2.494c0.57-0.913,1.273-2.258,2.112-4.035c0.554-1.157,0.957-1.923,1.21-2.299
			C163.712,50.662,163.941,50.426,164.274,50.148z"/>
	</g>
	<g>
		<path class="st1" d="M185.296,54.912c0.396-2.919,3.083-4.961,6.076-4.554c2.923,0.397,4.9,3.072,4.504,5.991
			c-0.396,2.919-3.004,4.901-5.927,4.504C186.956,60.446,184.9,57.831,185.296,54.912z M188.72,42.212l2.729-24.828
			c0.298-2.72,2.214-4.3,4.859-3.941c2.645,0.359,4.001,2.384,3.633,5.094l-3.982,24.657c-0.343,2.006-2.031,3.476-4.119,3.192
			C189.751,46.103,188.516,44.237,188.72,42.212z"/>
	</g>
</g>
</svg>
