<?xml version="1.0" encoding="utf-8"?>
<!-- Generator: Adobe Illustrator 24.0.3, SVG Export Plug-In . SVG Version: 6.00 Build 0)  -->
<svg version="1.1" id="Capa_1" xmlns="http://www.w3.org/2000/svg" xmlns:xlink="http://www.w3.org/1999/xlink" x="0px" y="0px"
	 width="100px" height="70px" viewBox="0 0 100 70" style="enable-background:new 0 0 100 70;" xml:space="preserve">
<style type="text/css">
	.st0{fill-rule:evenodd;clip-rule:evenodd;fill:#004177;}
	.st1{fill:#FFFFFF;}
	.st2{fill:#004177;}
	.st3{clip-path:url(#SVGID_2_);fill-rule:evenodd;clip-rule:evenodd;fill:#DD2818;}
	.st4{clip-path:url(#SVGID_4_);fill-rule:evenodd;clip-rule:evenodd;fill:#DD2818;}
	.st5{fill-rule:evenodd;clip-rule:evenodd;fill:#003B75;}
	.st6{fill-rule:evenodd;clip-rule:evenodd;fill:#DF050B;}
	.st7{fill-rule:evenodd;clip-rule:evenodd;fill:#FEFEFE;}
	.st8{fill-rule:evenodd;clip-rule:evenodd;fill:#004D97;}
	.st9{fill:#E30613;}
	.st10{fill-rule:evenodd;clip-rule:evenodd;fill:#FFFFFF;}
	.st11{fill:#C10000;}
	.st12{fill-rule:evenodd;clip-rule:evenodd;fill:#001F82;}
	.st13{fill:#001F82;}
	.st14{fill:#009A49;}
	.st15{fill:#352B6B;}
	.st16{fill:#D50C1F;}
	.st17{clip-path:url(#SVGID_6_);fill:none;stroke:#D50C1F;stroke-width:0.21;stroke-miterlimit:10;}
	.st18{fill:#0A1119;}
	.st19{fill:#E61E0A;}
	.st20{fill:#FAB500;}
	.st21{fill-rule:evenodd;clip-rule:evenodd;fill:#FABA01;}
	.st22{fill:#FABA01;}
	.st23{fill:#003772;}
	.st24{clip-path:url(#SVGID_8_);fill-rule:evenodd;clip-rule:evenodd;fill:#090908;}
	.st25{clip-path:url(#SVGID_10_);fill:#FCEE30;}
	.st26{fill-rule:evenodd;clip-rule:evenodd;fill:#FCEE30;}
	.st27{fill:#090908;}
</style>
<g>
	<path class="st0" d="M-257.06,45.722l0.248-0.001c0.163,0.001,0.276-0.029,0.345-0.081c0.064-0.048,0.099-0.127,0.098-0.209
		c0.001-0.08-0.034-0.155-0.096-0.204c-0.066-0.052-0.18-0.082-0.332-0.082l-0.266,0.002L-257.06,45.722z M-257.632,44.754
		l1.022-0.005c0.295-0.002,0.501,0.057,0.634,0.171c0.128,0.119,0.192,0.276,0.193,0.469c0.002,0.156-0.043,0.286-0.145,0.401
		c-0.104,0.11-0.256,0.194-0.473,0.244c0.091,0.035,0.155,0.075,0.197,0.11c0.052,0.053,0.117,0.128,0.185,0.228l0.368,0.666
		l-0.672,0.003c-0.223-0.436-0.367-0.697-0.444-0.784c-0.074-0.082-0.147-0.122-0.226-0.122c-0.016,0-0.037,0-0.067,0.01
		l0.004,0.899l-0.567,0.003L-257.632,44.754z M-254.929,45.885c-0.003-0.476-0.17-0.879-0.511-1.213
		c-0.336-0.34-0.745-0.504-1.223-0.503c-0.476,0.002-0.888,0.172-1.223,0.515c-0.339,0.334-0.499,0.737-0.497,1.216
		c0.002,0.479,0.164,0.885,0.509,1.221c0.337,0.335,0.75,0.501,1.227,0.498c0.475-0.003,0.885-0.168,1.218-0.507
		C-255.092,46.773-254.928,46.364-254.929,45.885 M-254.515,45.885c0.003,0.385-0.097,0.745-0.284,1.075
		c-0.19,0.329-0.446,0.595-0.781,0.786c-0.332,0.19-0.688,0.287-1.073,0.289c-0.379,0.002-0.736-0.096-1.066-0.281
		c-0.333-0.187-0.598-0.451-0.792-0.781c-0.195-0.328-0.288-0.686-0.289-1.073c-0.002-0.376,0.089-0.732,0.279-1.067
		c0.193-0.331,0.454-0.593,0.786-0.787c0.327-0.191,0.684-0.29,1.064-0.293c0.386,0,0.74,0.097,1.076,0.284
		c0.336,0.19,0.594,0.452,0.788,0.78C-254.617,45.151-254.516,45.507-254.515,45.885"/>
	<path class="st1" d="M-289.711,12.793l40.578,19.845c1.766,0.79,2.32,3.716,0.252,4.986l-40.646,20.246
		c-1.611,0.803-4.002,0.812-5.619,0.022l-40.682-19.857c-2.016-1.34-1.955-3.952,0.035-5.042l40.464-20.176
		C-293.718,12.013-291.326,12.004-289.711,12.793"/>
	<path class="st1" d="M-292.365,59.047c-1.105,0-2.18-0.23-3.031-0.644l-40.715-19.873l-0.031-0.022
		c-1.14-0.76-1.791-1.954-1.737-3.199c0.051-1.17,0.728-2.223,1.813-2.815l0.02-0.011l40.463-20.177
		c0.866-0.431,1.963-0.669,3.093-0.669c1.104,0,2.179,0.23,3.031,0.645l40.568,19.84c1.071,0.483,1.816,1.622,1.899,2.903
		c0.082,1.268-0.514,2.42-1.593,3.081l-0.042,0.024l-40.646,20.246C-290.137,58.809-291.235,59.047-292.365,59.047 M-335.543,37.539
		l40.646,19.841c0.698,0.34,1.597,0.529,2.533,0.529c0.957,0,1.874-0.195,2.585-0.549l40.62-20.235
		c0.71-0.444,1.087-1.182,1.032-2.026c-0.056-0.856-0.553-1.635-1.237-1.942l-0.019-0.008l-40.577-19.846
		c-0.698-0.338-1.596-0.528-2.53-0.528c-0.957,0-1.875,0.196-2.586,0.548l-40.452,20.171c-0.737,0.408-1.18,1.086-1.214,1.863
		C-336.777,36.192-336.33,37.003-335.543,37.539"/>
	<path class="st2" d="M-289.716,12.919l40.411,19.753c1.972,0.954,2.258,3.922,0.193,4.951l-40.421,20.154
		c-1.611,0.797-3.989,0.805-5.592,0.021L-335.2,38.231c-2.531-1.232-2.577-4.121-0.245-5.285l40.137-20.003
		C-293.709,12.144-291.333,12.136-289.716,12.919"/>
	<path class="st1" d="M-289.809,13.657l39.674,19.375c2.141,1.053,2.151,3.208,0.015,4.272l-39.513,19.7
		c-1.548,0.769-3.851,0.779-5.406,0.021l-39.674-19.383c-2.147-1.045-2.155-3.2-0.017-4.264l39.516-19.697
		C-293.668,12.91-291.363,12.901-289.809,13.657"/>
	<g>
		<g>
			<defs>
				<path id="SVGID_1_" d="M-292.484,13.096c-0.973,0-1.948,0.195-2.731,0.585l-39.516,19.697c-2.138,1.064-2.129,3.219,0.017,4.265
					l39.673,19.382c1.555,0.758,3.859,0.749,5.407-0.021l39.513-19.7c2.136-1.064,2.125-3.219-0.016-4.272l-39.673-19.375
					c-0.769-0.374-1.72-0.561-2.673-0.561C-292.483,13.096-292.484,13.096-292.484,13.096z"/>
			</defs>
			<clipPath id="SVGID_2_">
				<use xlink:href="#SVGID_1_"  style="overflow:visible;"/>
			</clipPath>
			<polygon class="st3" points="-320.36,6.282 -262.922,6.048 -262.798,23.563 -320.291,23.57 			"/>
		</g>
		<g>
			<defs>
				<path id="SVGID_3_" d="M-292.484,13.096c-0.973,0-1.948,0.195-2.731,0.585l-39.516,19.697c-2.138,1.064-2.129,3.219,0.017,4.265
					l39.673,19.382c1.555,0.758,3.859,0.749,5.407-0.021l39.513-19.7c2.136-1.064,2.125-3.219-0.016-4.272l-39.673-19.375
					c-0.769-0.374-1.72-0.561-2.673-0.561C-292.483,13.096-292.484,13.096-292.484,13.096z"/>
			</defs>
			<clipPath id="SVGID_4_">
				<use xlink:href="#SVGID_3_"  style="overflow:visible;"/>
			</clipPath>
			<polygon class="st4" points="-320.881,47.455 -263.419,47.451 -263.349,64.546 -320.782,64.779 			"/>
		</g>
	</g>
	<polygon class="st5" points="-303.92,28.454 -297.57,28.429 -293.075,36.582 -288.512,28.391 -282.288,28.368 -290.192,42.69 
		-295.927,42.714 	"/>
	<path class="st5" d="M-276.484,32.566l6.754-0.027c0.754-0.005,2.983,0.354,2.993,2.952c0.01,2.218-1.78,3.063-2.932,3.07
		l-6.79,0.026L-276.484,32.566z M-281.868,28.364l13.724-0.056c2.952,0,6.806,2.847,6.824,7.118c0.023,5.378-4.72,7.01-6.801,7.016
		l-8.387,0.035l0.015,3.475l-5.305,0.021L-281.868,28.364z"/>
	<path class="st5" d="M-309.589,38.723l-6.753,0.028c-0.752,0.002-2.983-0.53-2.994-3.129c-0.009-2.22,1.787-2.89,2.93-2.893
		l6.792-0.027L-309.589,38.723z M-304.197,42.747l-13.734,0.055c-2.95,0.009-6.802-2.844-6.82-7.114
		c-0.021-5.378,4.719-7.167,6.802-7.177l8.386-0.034l-0.014-3.317l5.307-0.02L-304.197,42.747z"/>
</g>
<g>
	<g transform="translate(42 .866)">
		<path class="st6" d="M-240.093,24.322c0-9.932,8.051-17.984,17.983-17.984s17.981,8.052,17.981,17.984
			c0,9.931-8.05,17.983-17.981,17.983C-232.042,42.305-240.093,34.253-240.093,24.322"/>
	</g>
	<path class="st7" d="M-191.938,25.188c0-6.532,5.295-11.827,11.826-11.827c6.532,0,11.827,5.295,11.827,11.827
		s-5.295,11.826-11.827,11.826C-186.642,37.015-191.938,31.72-191.938,25.188"/>
	<path class="st8" d="M-185.943,25.188c0-3.221,2.612-5.833,5.832-5.833s5.832,2.612,5.832,5.833s-2.611,5.832-5.832,5.832
		S-185.943,28.409-185.943,25.188"/>
	<path class="st8" d="M-224.817,51.095v1.408h3.933v10.526h1.579V52.503h3.948v-1.408
		C-215.357,51.095-224.817,51.095-224.817,51.095z M-212.134,56.361h3.395c0.721,0,1.286-0.074,1.693-0.219
		c0.408-0.152,0.716-0.392,0.927-0.717c0.212-0.332,0.317-0.689,0.317-1.074c0-0.564-0.205-1.029-0.617-1.393
		c-0.407-0.363-1.053-0.545-1.937-0.545h-3.778V56.361z M-213.712,63.029V51.095h5.291c1.064,0,1.872,0.108,2.426,0.325
		c0.554,0.212,0.994,0.59,1.325,1.132c0.333,0.543,0.498,1.142,0.498,1.799c0,0.846-0.275,1.56-0.822,2.141
		c-0.55,0.581-1.396,0.95-2.541,1.108c0.417,0.2,0.734,0.397,0.953,0.593c0.46,0.424,0.898,0.953,1.31,1.588l2.077,3.249h-1.986
		l-1.58-2.483c-0.461-0.717-0.841-1.265-1.139-1.644c-0.299-0.38-0.568-0.647-0.807-0.797c-0.233-0.153-0.472-0.259-0.716-0.318
		c-0.179-0.039-0.472-0.057-0.879-0.057h-1.832v5.299L-213.712,63.029z M-201.43,63.029h1.579V51.095h-1.579V63.029z"/>
	<g>
		<path class="st8" d="M-188.551,58.844l1.579,0.399c-0.332,1.297-0.927,2.288-1.791,2.971c-0.856,0.678-1.908,1.017-3.15,1.017
			c-1.287,0-2.333-0.261-3.142-0.781c-0.804-0.526-1.417-1.286-1.841-2.279c-0.418-0.993-0.626-2.059-0.626-3.199
			c0-1.243,0.236-2.325,0.709-3.249c0.477-0.927,1.153-1.63,2.027-2.108c0.879-0.482,1.845-0.724,2.897-0.724
			c1.196,0,2.199,0.304,3.013,0.912c0.813,0.609,1.381,1.462,1.701,2.565l-1.555,0.366c-0.276-0.868-0.679-1.5-1.205-1.897
			c-0.526-0.396-1.189-0.593-1.986-0.594c-0.917,0-1.685,0.219-2.304,0.659c-0.613,0.439-1.044,1.031-1.294,1.774
			c-0.25,0.738-0.375,1.501-0.375,2.288c0,1.015,0.146,1.902,0.44,2.662c0.299,0.754,0.76,1.318,1.384,1.692
			c0.624,0.375,1.299,0.562,2.027,0.562c0.884,0,1.634-0.255,2.247-0.765C-189.184,60.605-188.769,59.849-188.551,58.844
			 M-183.878,57.241c0,1.438,0.385,2.572,1.156,3.402c0.776,0.825,1.748,1.239,2.914,1.239c1.188,0,2.165-0.418,2.931-1.254
			c0.77-0.835,1.156-2.021,1.156-3.557c0-0.97-0.165-1.818-0.497-2.541c-0.325-0.726-0.806-1.287-1.44-1.684
			c-0.63-0.402-1.338-0.602-2.125-0.602c-1.118,0-2.082,0.385-2.891,1.156C-183.477,54.165-183.878,55.445-183.878,57.241
			 M-185.506,57.217c0-1.982,0.532-3.531,1.596-4.649c1.064-1.123,2.437-1.685,4.12-1.685c1.101,0,2.095,0.264,2.979,0.79
			c0.885,0.527,1.557,1.262,2.018,2.206c0.468,0.939,0.701,2.006,0.701,3.199c0,1.211-0.245,2.293-0.732,3.248
			c-0.489,0.955-1.181,1.68-2.077,2.174c-0.895,0.488-1.86,0.731-2.897,0.731c-1.124,0-2.129-0.27-3.013-0.813
			c-0.884-0.542-1.555-1.284-2.011-2.222C-185.279,59.258-185.506,58.264-185.506,57.217"/>
	</g>
	<path class="st8" d="M-172.124,63.029V51.095h1.579V61.62h5.878v1.408L-172.124,63.029L-172.124,63.029z"/>
	<g>
		<path class="st8" d="M-161.638,57.241c0,1.438,0.385,2.572,1.156,3.402c0.776,0.825,1.746,1.239,2.914,1.239
			c1.188,0,2.165-0.418,2.931-1.254c0.77-0.835,1.156-2.021,1.156-3.557c0-0.97-0.166-1.818-0.497-2.541
			c-0.326-0.726-0.806-1.287-1.441-1.684c-0.63-0.402-1.338-0.602-2.124-0.602c-1.119,0-2.082,0.385-2.891,1.156
			C-161.237,54.165-161.638,55.445-161.638,57.241 M-163.267,57.217c0-1.982,0.532-3.531,1.596-4.649
			c1.064-1.123,2.435-1.685,4.118-1.685c1.102,0,2.095,0.264,2.98,0.79c0.886,0.527,1.557,1.262,2.019,2.206
			c0.467,0.939,0.7,2.006,0.7,3.199c0,1.211-0.243,2.293-0.733,3.248c-0.487,0.955-1.18,1.68-2.075,2.174
			c-0.895,0.488-1.862,0.731-2.897,0.731c-1.123,0-2.128-0.27-3.013-0.813c-0.884-0.542-1.554-1.284-2.01-2.222
			C-163.039,59.258-163.267,58.264-163.267,57.217 M-148.215,56.361h3.394c0.721,0,1.286-0.074,1.694-0.219
			c0.406-0.152,0.717-0.392,0.927-0.717c0.212-0.332,0.317-0.689,0.317-1.074c0-0.564-0.205-1.029-0.617-1.393
			c-0.407-0.363-1.053-0.545-1.937-0.545h-3.778C-148.215,52.414-148.215,56.361-148.215,56.361z M-149.794,63.029V51.095h5.292
			c1.064,0,1.872,0.108,2.426,0.325c0.554,0.212,0.996,0.59,1.327,1.132c0.332,0.543,0.497,1.142,0.497,1.799
			c0,0.846-0.274,1.56-0.823,2.141c-0.549,0.581-1.395,0.95-2.539,1.108c0.417,0.2,0.734,0.397,0.953,0.593
			c0.461,0.424,0.897,0.953,1.31,1.588l2.075,3.249h-1.985l-1.58-2.483c-0.462-0.717-0.841-1.265-1.14-1.644
			c-0.299-0.38-0.567-0.647-0.806-0.797c-0.233-0.153-0.472-0.259-0.715-0.318c-0.18-0.039-0.474-0.057-0.88-0.057h-1.832v5.299
			L-149.794,63.029L-149.794,63.029z M-137.203,61.257h0.369c0.177,0,0.298-0.025,0.361-0.079c0.065-0.051,0.097-0.122,0.097-0.209
			c0-0.056-0.015-0.106-0.046-0.148c-0.032-0.045-0.075-0.079-0.13-0.101c-0.056-0.022-0.156-0.032-0.305-0.032h-0.347v0.569
			H-137.203z M-137.508,62.32v-1.889h0.649c0.222,0,0.382,0.018,0.481,0.054c0.1,0.034,0.178,0.095,0.238,0.182
			c0.06,0.086,0.089,0.179,0.089,0.276c0,0.139-0.049,0.258-0.149,0.361c-0.099,0.101-0.229,0.16-0.39,0.172
			c0.065,0.028,0.12,0.061,0.159,0.1c0.076,0.075,0.169,0.2,0.28,0.376l0.23,0.369h-0.373l-0.166-0.299
			c-0.132-0.234-0.239-0.381-0.318-0.439c-0.058-0.043-0.138-0.066-0.246-0.066h-0.178v0.803H-137.508L-137.508,62.32z
			 M-136.738,59.886c-0.247,0-0.487,0.063-0.721,0.191c-0.232,0.125-0.415,0.307-0.547,0.541c-0.131,0.234-0.197,0.479-0.197,0.733
			c0,0.252,0.064,0.496,0.193,0.728c0.13,0.231,0.312,0.413,0.545,0.543c0.232,0.128,0.474,0.193,0.728,0.193
			c0.252,0,0.495-0.065,0.728-0.193c0.233-0.13,0.414-0.311,0.542-0.543s0.193-0.475,0.193-0.728c0-0.254-0.066-0.499-0.197-0.733
			c-0.13-0.235-0.313-0.416-0.547-0.541C-136.253,59.948-136.493,59.886-136.738,59.886L-136.738,59.886z M-136.738,59.595
			c0.295,0,0.581,0.076,0.862,0.228c0.281,0.15,0.499,0.366,0.657,0.648c0.157,0.281,0.235,0.574,0.235,0.88
			c0,0.302-0.077,0.593-0.232,0.872c-0.154,0.279-0.37,0.496-0.65,0.652c-0.278,0.153-0.568,0.23-0.872,0.23
			s-0.596-0.077-0.875-0.23c-0.277-0.155-0.494-0.373-0.648-0.652c-0.155-0.28-0.233-0.57-0.233-0.872
			c0-0.306,0.078-0.599,0.235-0.88c0.159-0.282,0.378-0.498,0.658-0.648C-137.32,59.671-137.033,59.595-136.738,59.595z"/>
	</g>
</g>
<g id="g300_1_">
	<path id="path310_1_" class="st9" d="M-15.485,51.666h-99.998V18.334h99.998C-15.485,18.334-15.485,51.666-15.485,51.666z"/>
	<g id="g312_1_" transform="translate(404.711,35.0734)">
		<path id="path314_1_" class="st1" d="M-432.125,13.052h-3.154l2.495-6.251h3.156L-432.125,13.052z M-483.791,13.052h-3.157
			l2.495-6.251h3.156L-483.791,13.052z M-427.207,12.911l3.596-9.876h-9.687c-3.011,0.07-4.037,3.409-4.037,3.409l-2.421,6.467
			h-5.139l2.421-6.75h2.937l1.1-3.339h-2.715l1.761-4.691h-4.623l-1.981,4.834h-2.862l-1.176,3.268h3.008l-2.567,6.748h-5.137
			l3.597-10.016h-4.478l-3.962,10.052l-3.962,0.036l-0.956-3.694l6.458-6.324h-5.356l-5.137,4.902l3.448-9.806h-4.477l-5.651,14.85
			h-3.669l3.523-9.946h-9.909c-2.573,0-3.67,2.771-3.67,2.771l-2.862,7.106h-3.669l3.597-9.876h-7.855l0.881-2.486h-7.779
			l0.806-2.418h-14.386v4.122h8.22l-5.425,14.339h4.697l4.618-12.066h3.083l-4.324,12.066h4.694l3.666-9.791h3.377l-3.81,9.791
			h6.324c0.154-0.11,1.344-0.953,3.175-2.295c0,0,0.434,1.748,1.843,2.295h3.319c0.07-0.09,0.538-0.519,2.802-2.367
			c0,0,0.109,1.646,1.658,2.367h4.004c0.09-0.104,0.712-0.786,2.631-2.349l-0.912,2.349h4.735l2.637-6.88l2.123,6.88h4.86
			l2.41-2.331c0.376,1.933,1.756,2.275,2.158,2.331h5.341l2.482-2.261c0.204,1.509,1.841,2.168,2.093,2.261h5.336l2.407-2.331
			c0.294,1.989,2.348,2.331,2.348,2.331h3.229l2.275-2.331c0.368,1.989,2.57,2.331,2.57,2.331h9.357v-3.681L-427.207,12.911
			L-427.207,12.911z M-449.446-1.869h-4.475l-1.322,3.695h4.478L-449.446-1.869z"/>
	</g>
</g>
<g>
	<rect x="133.721" y="98.242" class="st10" width="63.206" height="63.204"/>
	<polygon class="st11" points="154.449,156.457 150.138,160.768 155.289,160.768 159.599,156.457 	"/>
	<polygon class="st11" points="164.79,156.457 160.478,160.768 165.628,160.768 169.94,156.457 	"/>
	<polygon class="st11" points="175.131,156.457 170.819,160.768 175.969,160.768 180.281,156.457 	"/>
	<path class="st11" d="M169.826,146.231l9.468-9.469c-2.05,0.637-4.274,1.135-6.626,1.475l-7.993,7.993h5.151V146.231z"/>
	<path class="st11" d="M159.485,146.231l7.503-7.503c-0.523,0.016-1.05,0.025-1.581,0.025c-1.179,0-2.337-0.043-3.476-0.119
		l-7.596,7.596L159.485,146.231L159.485,146.231z"/>
	<polygon class="st11" points="144.108,156.457 139.797,160.768 144.948,160.768 149.259,156.457 	"/>
	<polygon class="st11" points="196.249,160.768 196.249,156.02 191.501,160.768 	"/>
	<path class="st11" d="M192.518,123.538l3.731-3.731v-5.15l-5.19,5.19C191.845,121.016,192.345,122.254,192.518,123.538"/>
	<polygon class="st11" points="185.471,156.457 181.159,160.768 186.311,160.768 190.621,156.457 	"/>
	<polygon class="st11" points="180.166,146.231 196.249,130.148 196.249,124.999 175.016,146.231 	"/>
	<path class="st11" d="M185.547,115.018c1.132,0.652,2.15,1.361,3.036,2.114l7.665-7.665v-5.15L185.547,115.018z"/>
	<polygon class="st11" points="191.087,155.991 196.249,150.829 196.249,145.679 191.087,150.841 	"/>
	<polygon class="st11" points="190.506,146.231 196.249,140.488 196.249,135.339 185.357,146.231 	"/>
	<path class="st10" d="M138.217,124.554c0-7.839,12.174-14.198,27.189-14.198s27.189,6.359,27.189,14.198
		c0,7.847-12.174,14.199-27.189,14.199C150.391,138.753,138.217,132.401,138.217,124.554"/>
	<path class="st11" d="M157,128.865c0,0.973-0.766,1.593-2.299,1.857c-0.291,0.056-0.678,0.097-1.16,0.126
		c-0.483,0.028-0.917,0.041-1.621,0.041c-1.518,0-2.401-0.041-2.967-0.126c-1.748-0.25-2.621-0.835-2.621-1.753v-2.213h3.609v1.86
		c0,0.405,0.537,0.606,1.932,0.606c0.598,0,0.851-0.035,1.082-0.104c0.291-0.071,0.437-0.244,0.437-0.522v-3.484
		c0-0.75-4.572-1.307-5.519-1.8c-0.948-0.493-1.541-1.537-1.541-2.609v-3.422c0-0.999,1.944-2.111,2.936-2.111
		c0.706,0,1.548-0.041,2.468-0.041c3.433,0,4.989,0.529,4.989,1.586v2.193h-3.611v-1.235c0-0.278-0.023-0.451-0.069-0.521
		c-0.215-0.279-0.636-0.418-1.586-0.418c-0.965,0-1.389,0.139-1.518,0.393v3.129c0,0.746,4.722,1.609,6.072,2.271
		c0.608,0.298,0.988,1.003,0.988,1.712L157,128.865L157,128.865z"/>
	<path class="st11" d="M161.885,119.184h-3.436v-3.052h3.436V119.184z M161.885,130.712h-3.414v-10.128h3.414V130.712z"/>
	<path class="st11" d="M173.826,128.975c0,0.908-0.732,1.488-2.197,1.737c-0.609,0.119-1.686,0.178-2.919,0.178
		c-0.769,0-1.285-0.02-1.864-0.059v3.652h-3.414V122.4c0-1.144,1.596-1.717,5.105-1.717c3.421,0,5.289,0.526,5.289,1.58
		C173.826,122.263,173.826,128.975,173.826,128.975z M170.412,123.065c0-0.276-0.021-0.454-0.065-0.533v0.019
		c-0.203-0.21-0.889-0.315-1.744-0.315c-1.031,0-1.489,0.092-1.692,0.276c-0.044,0.039-0.064,0.231-0.064,0.573v5.679
		c0,0.382,0.501,0.573,1.82,0.573c0.566,0,1.115-0.033,1.333-0.099c0.274-0.065,0.413-0.23,0.413-0.494L170.412,123.065
		L170.412,123.065z"/>
	<path class="st11" d="M185.302,130.235c0,0-0.557,0.211-1.415,0.383c-0.612,0.124-1.884,0.272-3.711,0.272
		c-3.393,0-4.931-0.487-4.931-1.461v-3.337c0-0.961,1.373-1.441,4.43-1.441h2.191v-1.903c0-0.369-0.503-0.553-1.821-0.553
		c-0.551,0-0.792,0.033-1.039,0.099c-0.26,0.079-0.391,0.238-0.391,0.474v0.816h-3.414v-0.987c0-0.908,0.725-1.488,2.175-1.737
		c0.609-0.119,1.371-0.178,2.604-0.178c1.435,0,2.27,0.039,2.823,0.118c1.652,0.238,2.5,0.79,2.5,1.66L185.302,130.235
		L185.302,130.235z M181.866,126.185h-1.777c-0.813,0-1.162,0.092-1.366,0.276v-0.02c-0.043,0.067-0.064,0.204-0.064,0.414v1.831
		c0,0.224,0.021,0.362,0.064,0.414v-0.02c0.232,0.186,0.582,0.278,1.366,0.278c1.013,0,1.479-0.092,1.712-0.278
		c0.044-0.052,0.065-0.243,0.065-0.572V126.185z"/>
	<path class="st12" d="M139.562,146.231h9.375l8.156-8.156c-10.949-1.833-18.877-7.189-18.877-13.521
		c0-7.839,12.175-14.198,27.189-14.198c6.204,0,11.917,1.087,16.493,2.914l14.35-14.35H134.4v61.849l5.162-5.162V146.231z"/>
	<rect x="139.562" y="146.231" class="st1" width="51.525" height="10.226"/>
	<path class="st13" d="M145.778,149.261c-0.332-0.195-0.825-0.294-1.466-0.294h-1.747v4.715h1.123v-2.039h0.624
		c0.641,0,1.135-0.096,1.467-0.286c0.292-0.176,0.441-0.41,0.441-0.694v-0.714C146.22,149.664,146.072,149.432,145.778,149.261
		 M143.688,149.597h0.618c0.167,0,0.312,0.037,0.434,0.111c0.111,0.067,0.164,0.144,0.164,0.236v0.721
		c0,0.097-0.053,0.176-0.163,0.24c-0.121,0.071-0.268,0.108-0.435,0.108h-0.618V149.597z"/>
	<path class="st13" d="M149.033,148.967v3.772c0,0.089-0.055,0.164-0.166,0.228c-0.124,0.071-0.271,0.107-0.438,0.107
		c-0.164,0-0.306-0.035-0.419-0.105c-0.104-0.064-0.154-0.139-0.154-0.23v-3.772h-1.314v3.772c0,0.284,0.148,0.517,0.441,0.688
		c0.324,0.195,0.816,0.294,1.457,0.294c0.641,0,1.134-0.099,1.466-0.294c0.292-0.171,0.442-0.403,0.442-0.688v-3.772H149.033z"/>
	<path class="st13" d="M154.547,150.663v-0.714c0-0.284-0.15-0.517-0.442-0.688c-0.332-0.195-0.825-0.294-1.466-0.294h-1.748v4.715
		h1.124v-2.039h0.626c0.168,0.005,0.312,0.044,0.431,0.115c0.107,0.063,0.159,0.138,0.159,0.23v1.694h1.315v-1.694
		c0-0.274-0.135-0.495-0.399-0.66C154.412,151.158,154.547,150.935,154.547,150.663 M152.015,149.597h0.618
		c0.167,0,0.312,0.037,0.434,0.111c0.111,0.067,0.164,0.144,0.164,0.236v0.721c0,0.092-0.052,0.171-0.159,0.238
		c-0.119,0.073-0.263,0.111-0.429,0.111h-0.629v-1.417H152.015z"/>
	<path class="st13" d="M158.454,149.261c-0.332-0.195-0.825-0.294-1.466-0.294c-0.641,0-1.132,0.099-1.457,0.294
		c-0.292,0.171-0.441,0.403-0.441,0.688v3.772h1.314v-2.015h1.176v2.015h1.315v-3.772
		C158.896,149.664,158.747,149.432,158.454,149.261 M156.405,149.943c0-0.097,0.051-0.176,0.155-0.239
		c0.115-0.071,0.256-0.107,0.423-0.107c0.166,0,0.312,0.037,0.434,0.111c0.111,0.067,0.164,0.143,0.164,0.235v1.008h-1.176V149.943z
		"/>
	<path class="st13" d="M164.209,149.261c-0.332-0.195-0.825-0.294-1.466-0.294h-1.747v4.715h1.123v-2.039h0.624
		c0.641,0,1.135-0.096,1.467-0.286c0.292-0.176,0.441-0.41,0.441-0.694v-0.714C164.651,149.664,164.503,149.432,164.209,149.261
		 M162.12,149.597h0.618c0.167,0,0.312,0.037,0.434,0.111c0.111,0.067,0.164,0.144,0.164,0.236v0.721
		c0,0.097-0.053,0.176-0.163,0.24c-0.121,0.071-0.268,0.108-0.435,0.108h-0.618V149.597z"/>
	<rect x="164.973" y="148.967" class="st13" width="1.123" height="4.715"/>
	<polygon class="st13" points="169.544,148.967 169.544,151.791 167.772,149.005 167.749,148.967 166.661,148.967 166.661,153.681 
		167.785,153.681 167.785,150.874 169.547,153.645 169.569,153.681 170.667,153.681 170.667,148.967 	"/>
	<polygon class="st13" points="171.08,148.967 171.08,149.723 172.697,149.723 172.697,153.681 173.822,153.681 173.822,149.723 
		175.439,149.723 175.439,148.967 	"/>
	<path class="st13" d="M178.222,148.967v3.772c0,0.089-0.055,0.164-0.166,0.228c-0.124,0.071-0.271,0.107-0.438,0.107
		c-0.164,0-0.306-0.035-0.419-0.105c-0.104-0.064-0.154-0.139-0.154-0.23v-3.772h-1.314v3.772c0,0.284,0.148,0.517,0.441,0.688
		c0.324,0.195,0.816,0.294,1.457,0.294c0.641,0,1.134-0.099,1.466-0.294c0.292-0.171,0.442-0.403,0.442-0.688v-3.772H178.222z"/>
	<path class="st13" d="M183.736,150.663v-0.714c0-0.284-0.15-0.517-0.442-0.688c-0.332-0.195-0.825-0.294-1.466-0.294h-1.748v4.715
		h1.124v-2.039h0.626c0.168,0.005,0.312,0.044,0.431,0.115c0.107,0.063,0.159,0.138,0.159,0.23v1.694h1.315v-1.694
		c0-0.274-0.135-0.495-0.399-0.66C183.601,151.158,183.736,150.935,183.736,150.663 M181.204,149.597h0.618
		c0.167,0,0.312,0.037,0.434,0.111c0.111,0.067,0.164,0.144,0.164,0.236v0.721c0,0.092-0.052,0.171-0.159,0.238
		c-0.119,0.073-0.263,0.111-0.429,0.111h-0.628V149.597z"/>
	<path class="st13" d="M187.643,149.261c-0.332-0.195-0.825-0.294-1.466-0.294s-1.132,0.099-1.457,0.294
		c-0.292,0.171-0.441,0.403-0.441,0.688v3.772h1.314v-2.015h1.176v2.015h1.315v-3.772
		C188.085,149.664,187.935,149.432,187.643,149.261 M185.593,149.943c0-0.097,0.051-0.176,0.155-0.239
		c0.115-0.071,0.256-0.107,0.423-0.107c0.166,0,0.312,0.037,0.434,0.111c0.111,0.067,0.164,0.143,0.164,0.235v1.008h-1.176
		C185.593,150.951,185.593,149.943,185.593,149.943z"/>
</g>
<g>
	<path class="st14" d="M145.574,58.165c-0.802,0.62-1.927,0.97-2.996,0.97c-2.377,0-3.742-1.589-3.742-4.163
		c0-3.643,2.18-6.161,5.345-6.161c1.069,0,2.054,0.352,2.644,0.956l-1.28,1.506c-0.365-0.38-0.942-0.59-1.546-0.59
		c-1.688,0-2.73,1.659-2.73,4.206c0,1.546,0.591,2.391,1.674,2.391c0.647,0,1.322-0.239,1.843-0.619L145.574,58.165z"/>
	<path class="st14" d="M148.654,55.774c0.042,1.055,0.563,1.631,1.547,1.631c0.563,0,1.308-0.196,1.828-0.505l0.676,1.223
		c-0.787,0.619-2.053,1.012-3.165,1.012c-1.97,0-3.109-1.265-3.109-3.291c0-2.87,1.787-4.811,4.389-4.811
		c1.814,0,2.785,1.126,2.785,2.997c0,0.59-0.126,1.111-0.323,1.744H148.654z M151.467,54.395c0.014-0.127,0.014-0.253,0.014-0.394
		c0-0.858-0.324-1.35-0.971-1.35c-0.9,0-1.476,0.731-1.73,1.744H151.467z"/>
	<path class="st14" d="M165.279,53.41l-0.873,5.472h-2.236l0.816-5.134c0.099-0.605-0.084-0.956-0.52-0.956
		c-0.423,0-0.873,0.296-1.21,0.83l-0.83,5.261h-2.237l0.817-5.134c0.113-0.633-0.057-0.956-0.478-0.956
		c-0.436,0-0.914,0.296-1.266,0.844l-0.83,5.246h-2.236l1.209-7.595h2.138l-0.141,0.886c0.563-0.69,1.477-1.14,2.279-1.14
		c0.844,0,1.407,0.45,1.59,1.21c0.563-0.746,1.49-1.21,2.293-1.21C164.885,51.033,165.504,51.919,165.279,53.41"/>
	<path class="st14" d="M168.47,55.774c0.042,1.055,0.563,1.631,1.547,1.631c0.563,0,1.308-0.196,1.829-0.505l0.675,1.223
		c-0.787,0.619-2.053,1.012-3.165,1.012c-1.969,0-3.108-1.265-3.108-3.291c0-2.87,1.786-4.811,4.388-4.811
		c1.815,0,2.785,1.126,2.785,2.997c0,0.59-0.126,1.111-0.323,1.744H168.47z M171.283,54.395c0.014-0.127,0.014-0.253,0.014-0.394
		c0-0.858-0.324-1.35-0.97-1.35c-0.9,0-1.477,0.731-1.73,1.744H171.283z"/>
	<path class="st14" d="M181.34,53.41l-0.873,5.472h-2.222l0.816-5.134c0.084-0.605-0.14-0.956-0.633-0.956
		c-0.478,0-0.999,0.323-1.364,0.9l-0.816,5.19h-2.236l1.209-7.595h2.138l-0.141,0.886c0.605-0.731,1.534-1.14,2.349-1.14
		C180.861,51.033,181.565,51.99,181.34,53.41"/>
	<path class="st14" d="M182.759,56.674l0.605-3.77h-1.07l0.197-1.322l0.731-0.169c0.253-0.071,0.393-0.155,0.52-0.521l0.408-1.237
		h1.941l-0.254,1.632h1.815l-0.267,1.617h-1.801l-0.563,3.587c-0.098,0.619,0.113,0.858,0.577,0.858
		c0.296,0,0.676-0.084,1.126-0.253v1.632c-0.704,0.281-1.35,0.408-1.913,0.408C183.378,59.136,182.506,58.278,182.759,56.674"/>
	<path class="st14" d="M195.067,54.325c0,2.87-1.773,4.81-4.389,4.81c-1.97,0-3.109-1.266-3.109-3.306
		c0-2.856,1.786-4.796,4.389-4.796C193.941,51.033,195.067,52.299,195.067,54.325 M192.76,54.423c0-1.013-0.38-1.617-1.083-1.617
		c-1.126,0-1.786,1.266-1.786,2.926c0,1.027,0.365,1.646,1.069,1.646C192.084,57.378,192.76,56.083,192.76,54.423"/>
	<path class="st14" d="M199.566,54.255c0.957,0.267,2.152,0.633,2.152,2.026c0,1.702-1.589,2.855-3.783,2.855
		c-1.14,0-2.307-0.422-2.897-1.069l1.167-1.336c0.478,0.422,1.224,0.717,1.899,0.717c0.788,0,1.266-0.31,1.266-0.802
		c0-0.463-0.422-0.59-1.126-0.801c-0.913-0.267-2.166-0.704-2.166-2.097c0-1.66,1.365-2.715,3.446-2.715
		c1,0,2.111,0.337,2.771,0.873l-1.182,1.336c-0.379-0.31-1.04-0.52-1.673-0.52c-0.634,0-1.097,0.296-1.097,0.717
		C198.343,53.889,198.793,54.029,199.566,54.255"/>
	<path class="st14" d="M154.307,10.864h-8.854c-3.011,0-6.012,0.546-7.953,2.274c-4.724,4.206-4.864,9.141-3.835,13.508
		c0.007,0.029,0.013,0.059,0.02,0.088c0.027,0.111,0.057,0.22,0.085,0.329c0.526,1.908,1.645,4.012,3.118,5.681
		c-0.05-0.719-0.049-1.514,0.007-2.393c0.03-0.47,0.073-0.961,0.132-1.48c0.385-3.345,1.417-5.869,2.766-7.693
		c0.867-1.107,2.026-2.249,3.444-2.984c1.419-0.734,3.035-0.81,3.494-0.834c0.66-0.033,1.319,0,1.96,0h5
		c0.494,0,0.911-0.365,0.977-0.854l0.613-4.525C155.365,11.391,154.905,10.864,154.307,10.864"/>
	<path class="st15" d="M203.571,24.438c-0.643-2.383-2.122-3.966-4.481-4.736c-1.02-0.332-2.08-0.513-3.173-0.596
		c-1.541-0.116-3.095-0.034-4.661,0.31c-0.486,0.107-0.97,0.232-1.498,0.36c-0.003-0.194-0.02-0.326-0.003-0.458
		c0.312-2.518,0.635-5.035,0.944-7.553c0.101-0.819,0.028-0.896-0.771-0.897c-1.999-0.004-3.999-0.004-6,0
		c-0.779,0.002-0.841,0.058-0.938,0.851c-1.255,10.21-2.509,20.42-3.759,30.63h-0.001l-0.247,1.941
		c-0.033,0.257,0.167,0.484,0.426,0.484h10.684l-0.018-0.004c1.695-0.023,3.395-0.193,5.111-0.649
		c2.213-0.588,4.119-1.711,5.574-3.593c1.482-1.917,2.143-4.08,2.47-6.317c0.244-1.67,0.437-3.341,0.617-5.012
		C204.025,27.568,203.985,25.969,203.571,24.438 M196.222,30.103c-0.097,1.173-0.222,2.352-0.439,3.522
		c-0.172,0.929-0.435,1.866-0.776,2.769c-0.606,1.609-1.869,2.332-3.53,2.421c-1.179,0.063-2.351,0.017-3.524,0.004
		c-0.621-0.007-0.675-0.067-0.6-0.697c0.238-1.997,1.208-9.891,1.452-11.84c0.084-0.673,0.168-0.759,0.816-0.935
		c1.545-0.42,3.073-0.441,4.575-0.28c1.195,0.129,1.985,1.055,2.067,2.383C196.316,28.323,196.295,29.215,196.222,30.103"/>
	<path class="st15" d="M178.203,24.438c-0.643-2.383-2.122-3.966-4.481-4.736c-1.02-0.332-2.08-0.513-3.173-0.596
		c-1.541-0.116-3.095-0.034-4.661,0.31c-0.486,0.107-0.97,0.232-1.498,0.36c-0.003-0.194-0.02-0.326-0.003-0.458
		c0.312-2.518,0.635-5.035,0.944-7.553c0.101-0.819,0.028-0.896-0.771-0.897c-1.999-0.004-3.999-0.004-6,0
		c-0.779,0.002-0.841,0.058-0.938,0.851c-1.255,10.21-2.509,20.42-3.759,30.63h-0.001l-0.247,1.941
		c-0.033,0.257,0.167,0.484,0.426,0.484h10.684l-0.018-0.004c1.695-0.023,3.395-0.193,5.111-0.649
		c2.213-0.588,4.119-1.711,5.574-3.593c1.482-1.917,2.143-4.08,2.47-6.317c0.244-1.67,0.437-3.341,0.617-5.012
		C178.657,27.568,178.617,25.969,178.203,24.438 M170.854,30.103c-0.097,1.173-0.222,2.352-0.439,3.522
		c-0.172,0.929-0.435,1.866-0.776,2.769c-0.606,1.609-1.869,2.332-3.53,2.421c-1.179,0.063-2.351,0.017-3.524,0.004
		c-0.621-0.007-0.675-0.067-0.6-0.697c0.238-1.997,1.208-9.891,1.452-11.84c0.084-0.673,0.168-0.759,0.816-0.935
		c1.545-0.42,3.073-0.441,4.575-0.28c1.195,0.129,1.985,1.055,2.067,2.383C170.948,28.323,170.927,29.215,170.854,30.103"/>
	<path class="st15" d="M151.633,35.678c-2.526,1.403-8.45,2.905-12.733,1.583c-2.883-0.889-4.827-2.636-6.051-4.81v0.003
		c-1.161-1.813-2.264-6.138-2.466-9.434c-1.648,4.285-2.605,9.57-0.171,15.517c1.491,3.789,5.352,5.907,7.904,6.17
		c5.026,0.608,9.78-0.35,13.03-1.639c0.209-0.083,0.352-0.274,0.38-0.497l0.075-0.611v-0.004l0.316-2.558c0-0.002,0-0.004,0-0.005
		l0.401-3.26C152.364,35.757,151.964,35.494,151.633,35.678"/>
</g>
<g>
	<rect x="-342.485" y="117.968" class="st16" width="23.505" height="20.215"/>
	<g>
		<g>
			<g>
				<defs>
					<rect id="SVGID_5_" x="-342.485" y="117.967" width="100" height="20.215"/>
				</defs>
				<clipPath id="SVGID_6_">
					<use xlink:href="#SVGID_5_"  style="overflow:visible;"/>
				</clipPath>
				<rect x="-342.486" y="117.968" class="st17" width="23.506" height="20.215"/>
			</g>
		</g>
	</g>
	<polygon class="st1" points="-332.039,129.591 -332.039,128.58 -328.121,128.58 -328.121,126.559 -324.203,126.559 
		-324.203,123.021 -337.262,123.021 -337.262,133.129 -324.203,133.129 -324.203,129.591 	"/>
	<path class="st18" d="M-298.854,133.129h4.535v-6.57h-4.535V133.129z M-292.375,126.559v6.57h4.535v-4.548h1.944v4.548h4.535v-6.57
		H-292.375z M-261.923,127.823h2.592v1.01h-2.592V127.823z M-266.458,126.559v6.57h11.015v-2.021h-6.479v-1.011h6.479v-3.538
		H-266.458z M-313.756,123.022v10.108h12.958v-3.537h-7.775v-1.011h3.888v-2.022h3.887v-3.537L-313.756,123.022L-313.756,123.022z
		 M-298.854,125.043h4.535v-2.021h-4.535V125.043z M-279.417,123.022v10.108h4.536v-4.548h1.944v4.548h4.535v-6.57h-6.479v-3.537
		L-279.417,123.022L-279.417,123.022z M-253.5,133.129h4.535v-10.107h-4.535V133.129z M-247.02,133.129h4.535v-10.107h-4.535
		V133.129z"/>
</g>
<g>
	<path id="path322" class="st19" d="M-150.876,136.19h0.686c0.324,0,0.549-0.05,0.667-0.145c0.122-0.099,0.179-0.229,0.179-0.389
		c0-0.103-0.03-0.198-0.088-0.278c-0.057-0.084-0.133-0.141-0.236-0.183c-0.103-0.042-0.29-0.061-0.568-0.061h-0.64L-150.876,136.19
		z M-151.44,138.156v-3.494h1.2c0.411,0,0.709,0.03,0.892,0.099c0.183,0.061,0.328,0.175,0.438,0.335s0.164,0.332,0.164,0.511
		c0,0.255-0.091,0.48-0.274,0.667c-0.179,0.191-0.423,0.297-0.724,0.32c0.122,0.05,0.221,0.111,0.297,0.183
		c0.141,0.141,0.312,0.37,0.514,0.693l0.427,0.686h-0.69l-0.309-0.552c-0.244-0.434-0.438-0.705-0.587-0.812
		c-0.103-0.084-0.255-0.122-0.453-0.122h-0.331v1.486L-151.44,138.156z M-150.015,133.653c-0.457,0-0.899,0.118-1.33,0.351
		c-0.434,0.233-0.77,0.568-1.014,1.002s-0.366,0.884-0.366,1.356c0,0.469,0.118,0.914,0.358,1.345
		c0.24,0.427,0.575,0.762,1.006,0.998c0.427,0.24,0.876,0.362,1.345,0.362s0.914-0.122,1.345-0.362
		c0.431-0.236,0.766-0.572,1.002-0.998c0.24-0.431,0.358-0.876,0.358-1.345c0-0.472-0.122-0.922-0.366-1.356
		c-0.24-0.434-0.579-0.77-1.01-1.002C-149.12,133.771-149.561,133.653-150.015,133.653 M-150.015,133.115
		c0.545,0,1.078,0.137,1.596,0.419c0.518,0.278,0.922,0.678,1.212,1.2c0.29,0.518,0.434,1.063,0.434,1.627
		c0,0.56-0.145,1.094-0.427,1.612c-0.286,0.518-0.686,0.918-1.2,1.2c-0.514,0.29-1.052,0.431-1.616,0.431s-1.101-0.141-1.616-0.431
		c-0.514-0.282-0.914-0.682-1.2-1.2s-0.431-1.052-0.431-1.612c0-0.564,0.145-1.109,0.434-1.627c0.293-0.522,0.697-0.922,1.215-1.2
		C-151.093,133.253-150.56,133.115-150.015,133.115"/>
	<path id="path324" class="st19" d="M-179.487,99.01l33.541,58.128h-67.078L-179.487,99.01z"/>
	<path id="path326" class="st20" d="M-184.478,139.368h-2.282c-0.32,0-0.625,0.259-0.682,0.579l-1.913,10.482
		c-0.057,0.316,0.156,0.575,0.472,0.575h2.279c0.32,0,0.625-0.259,0.682-0.575l1.913-10.482
		C-183.948,139.627-184.162,139.372-184.478,139.368"/>
	<path id="path328" class="st20" d="M-183.114,135.043l0.358-1.985c0.057-0.316-0.152-0.575-0.472-0.575h-2.282
		c-0.316,0-0.621,0.259-0.678,0.575l-0.358,1.985c-0.057,0.316,0.152,0.575,0.472,0.575h2.279
		C-183.476,135.619-183.171,135.36-183.114,135.043"/>
	<path id="path330" class="st20" d="M-158.474,150.456c0.156-0.392,0.271-1.452,0.271-1.452c0.023-0.156,0.061-0.572-0.324-0.69
		c-0.381-0.114-1.292,0.022-1.292-0.571c0-0.21,0.713-3.719,0.785-4.843c0.076-1.124,0.008-2.606-1.837-3.334
		c-0.671-0.263-6.66-0.194-6.66-0.194c-0.354-0.003-0.674,0.221-0.72,0.507l-0.271,1.261c-0.046,0.286,0.21,0.518,0.564,0.526h4.134
		c1.475,0,2.012,0.282,2.038,0.533c0.03,0.255,0.069,1.696-0.552,1.669c-0.549-0.022-7.998-1.49-7.998,3.422
		c0,0.853-1.444,1.17-1.821,0.594c-0.381-0.579-2.317-2.515-2.332-2.858c-0.019-0.343,3.204-2.012,3.89-4.744
		c0.065-0.255,0.11-0.914-0.396-0.914c-0.358,0-1.692,0.003-1.966,0c-0.263-0.003-0.61,0.061-0.914,0.69
		c-1.33,3.075-4.801,3.78-4.557,2.637c0.084-0.373,4.043-22.271,4.043-22.271c0.061-0.316-0.152-0.575-0.472-0.575h-2.278
		c-0.32,0-0.625,0.259-0.682,0.575l-5.468,30.005c-0.057,0.32,0.152,0.575,0.472,0.575h2.282c0.316,0,0.621-0.255,0.678-0.575
		l0.64-3.391l0.004,0.003c0.187-0.488,0.469-0.701,1.094-0.701c2.252,0,3.399,4.827,5.7,4.869c1.383,0.022,3.033-1.025,3.349-1.033
		c0.663-0.019,1.036,1.033,3.25,1.033c1.97,0,3.399-0.72,3.86-0.72c0.408,0,1.265,0.438,1.692,0.552
		c1.048,0.278,1.642-0.194,1.795-0.587 M-165.057,148.824c-1.696,0.08-2.625-0.735-2.625-1.532c0-1.093,1.68-1.444,3.041-1.395
		c1.364,0.05,2.301,0.343,2.267,1.414C-162.402,148.108-163.617,148.755-165.057,148.824"/>
	<path id="path332" class="st20" d="M-200.824,151.244c0.168-0.08,0.274-0.183,0.366-0.217c0.072-0.022,0.21-0.014,0.4,0.019
		l0.023,0.008c1.581,0.446,7.304,1.978,8.71-4.683c0,0,3.886-21.295,3.894-21.345c0.03-0.252,0.476-2.957,4.241-1.688
		c1.265,0.427,1.375-0.206,1.41-0.32l0.579-2.488c0.019-0.709-0.549-0.545-1.635-0.754c-0.834-0.156-1.078,0.29-1.265,0.381
		c-0.194,0.088-0.857-0.072-1.844-0.118c-0.572-0.028-4.016,0.404-4.709,3.768l-3.784,20.461c-0.171,0.613-0.114,6.394-6.752,3.132
		c-1.132-0.556-1.558-0.263-1.661,0.32c-0.069,0.415-0.385,2.515-0.438,2.941c-0.023,0.175,0.107,0.453,0.438,0.503
		c0.347,0.057,0.903,0.137,1.177,0.179c0.392,0.057,0.636,0.011,0.815-0.08L-200.824,151.244"/>
</g>
<g>
	<path class="st21" d="M93.783,47.307v-1.746h-0.335l-0.495,1.475h-0.005l-0.497-1.475h-0.339v1.746h0.228v-1.032
		c0-0.05-0.004-0.27-0.004-0.43h0.004l0.493,1.462h0.232l0.492-1.469h0.003c0,0.167-0.003,0.387-0.003,0.437v1.032L93.783,47.307
		L93.783,47.307z"/>
	<rect x="94.038" y="47.045" class="st21" width="0.249" height="0.262"/>
	<path class="st21" d="M95.258,46.557h0.571c0.281,0,0.314,0.168,0.314,0.309c0,0.064,0.005,0.331,0.039,0.44h0.29v-0.042
		c-0.074-0.039-0.087-0.078-0.087-0.173l-0.017-0.317c-0.008-0.241-0.11-0.287-0.21-0.328c0.115-0.063,0.243-0.16,0.243-0.42
		c0-0.365-0.286-0.465-0.572-0.465h-0.809v1.746h0.238V46.557z M95.258,45.765h0.589c0.117,0,0.311,0.02,0.311,0.287
		c0,0.259-0.181,0.303-0.354,0.303h-0.547L95.258,45.765L95.258,45.765z"/>
	<rect x="96.641" y="47.045" class="st21" width="0.255" height="0.262"/>
	<path class="st22" d="M3.086,48.97l1.25-15.746c0.533-6.729,4.966-10.952,11.582-10.952L86.1,22.269
		c5.485,0,7.851-0.545,8.606-0.695c0.756-0.15,2.209-0.544,2.209-0.544L95.87,35.797c-0.64,10.718-9.575,11.474-10.798,11.474
		c-3.592,0-69.815,0.015-69.815,0.015c-4.051,0-7.504,0.448-10.103,1.097C3.717,48.745,3.086,48.97,3.086,48.97"/>
	<path class="st23" d="M93.568,25.099c-1.864,0.325-4.332,0.271-7.087,0.271H16.057c-5.033,0-8.246,3.133-8.628,8.102L6.456,44.879
		c1.929-0.426,5.059-0.736,9.094-0.736h69.348c0.29-0.008,7.048,0.108,7.829-8.247L93.568,25.099z"/>
	<path class="st7" d="M27.027,35.156c0.168-0.943,0.563-1.829,1.44-1.829c0.829,0,1.103,1.042,0.96,1.854L27.027,35.156z
		 M32.808,36.961c0.457-2.72,0.337-5.627-4.342-5.627c-3.596,0-5.316,1.835-5.758,4.923c-0.426,2.978,1.761,4.441,4.6,4.441
		c2.06,0,4.316-0.478,4.316-0.478l0.28-2.19c0,0-2.321,0.528-2.876,0.515c-1.92-0.041-2.464-0.536-2.281-1.583h6.061V36.961z"/>
	<path class="st7" d="M33.329,40.425l4.252,0.006l0.519-3.038c0.361-1.549,1.519-2.575,2.677-2.575c0.263,0,0.782,0.073,1.041,0.108
		l0.439-3.501c-0.164-0.018-0.329-0.051-0.499-0.052c-2.176-0.034-3.26,2.239-3.26,2.239l0.138-1.988l-3.932,0.007L33.329,40.425z"
		/>
	<path class="st7" d="M64.29,29.565c-0.068-0.792,0.856-1.515,2.066-1.621c1.209-0.104,2.247,0.448,2.313,1.239
		c0.072,0.789-0.854,1.516-2.06,1.618C65.396,30.909,64.36,30.354,64.29,29.565 M66.886,40.373l1.518-8.979H64.05l-1.519,8.979
		H66.886z"/>
	<path class="st7" d="M83.071,33.979c1.193-0.145,2.03,0.57,1.875,1.655c-0.202,1.332-1.007,2.067-2.195,2.21
		c-1.194,0.147-1.893-0.503-1.959-1.594C80.722,35.162,81.879,34.126,83.071,33.979 M82.39,40.514
		c-2.727,0.359-4.682-1.259-4.839-3.945c-0.157-2.683,2.11-5.098,4.839-5.458c1.137-0.149,2.172,0.139,2.984,0.677l0.093-0.372
		h3.038l-1.158,8.98h-3.039l0.103-0.826C83.735,40.288,83.118,40.419,82.39,40.514"/>
	<path class="st7" d="M46.622,35.156c0.17-0.943,0.562-1.829,1.444-1.829c0.823,0,1.099,1.042,0.955,1.854L46.622,35.156z
		 M52.405,36.961c0.455-2.72,0.334-5.627-4.339-5.627c-3.599,0-5.317,1.835-5.762,4.923c-0.422,2.978,1.76,4.441,4.6,4.441
		c2.063,0,4.315-0.478,4.315-0.478l0.281-2.19c0,0-2.318,0.528-2.876,0.515c-1.918-0.041-2.465-0.536-2.281-1.583h6.062V36.961z"/>
	<path class="st7" d="M22.871,28.705c0.04,0.04-0.077-0.437-3.597-0.437c-3.679,0-7.308,2.483-7.834,6.437
		c-0.399,3.005,1.612,5.954,5.637,5.954c3.209,0,4.078-0.518,4.078-0.518l0.398-3.028c0,0-1.279,0.517-3.399,0.397
		c-2.022-0.113-2.675-1.432-2.518-2.749c0.287-2.359,2.105-2.939,3.477-3.226c1.72-0.359,3.281,0.318,3.281,0.318L22.871,28.705z"/>
	<path class="st7" d="M53.087,40.14c0,0,1.6,0.539,3.627,0.539c3.245,0,4.951-1.255,5.315-3.082
		c0.774-3.912-4.722-2.243-4.502-3.475c0.078-0.437,0.642-0.638,1.104-0.622c0.273,0.007,0.694-0.095,1.493,0.025
		c0.799,0.279,1.858,0.23,1.84,0.519l0.359-2.354c0,0-1.748-0.395-3.677-0.395c-1.842,0-4.601,0.703-4.969,2.964
		c-0.59,3.607,4.864,2.191,4.45,3.568c-0.12,0.397-0.702,0.565-1.24,0.595c-2,0.121-3.557-0.834-3.557-0.834L53.087,40.14z"/>
	<path class="st7" d="M76.434,37.629l-0.917,0.04c-0.984,0-1.065-0.467-0.922-1.277l0.356-2.413h2.044l0.357-2.486h-2.041
		l0.644-3.425l-4.517,1.354l-0.323,2.071h-1.637l-0.357,2.486h1.586l-0.652,3.69c-0.199,2.047,1.424,3.006,3.022,2.908
		c1.598-0.098,2.837-0.477,2.837-0.477L76.434,37.629z"/>
</g>
<g>
	<g>
		<g>
			<defs>
				<rect id="SVGID_7_" x="19.506" y="97.581" width="60.987" height="60.987"/>
			</defs>
			<clipPath id="SVGID_8_">
				<use xlink:href="#SVGID_7_"  style="overflow:visible;"/>
			</clipPath>
			<path class="st24" d="M50.013,98.754c18.815,9.92,30.061,28.411,29.417,50.066c-17.828,11.741-41.503,11.499-58.885,0
				C20.33,126.491,31.281,108.966,50.013,98.754"/>
		</g>
		<g>
			<defs>
				<rect id="SVGID_9_" x="19.506" y="97.581" width="60.987" height="60.987"/>
			</defs>
			<clipPath id="SVGID_10_">
				<use xlink:href="#SVGID_9_"  style="overflow:visible;"/>
			</clipPath>
			<path class="st25" d="M50.014,98.755c18.815,9.92,30.06,28.41,29.418,50.065c-8.868,5.84-19.184,8.715-29.449,8.715
				c-10.375,0-20.699-2.936-29.438-8.715C20.331,126.491,31.281,108.966,50.014,98.755 M50.006,97.581l-0.489,0.267
				c-4.746,2.588-9.037,5.664-12.75,9.144c-3.734,3.498-6.923,7.443-9.483,11.722c-5.265,8.806-7.882,18.94-7.773,30.114
				l0.006,0.549l0.458,0.303c4.394,2.907,9.234,5.147,14.385,6.655c5.055,1.481,10.311,2.232,15.624,2.232
				c5.283,0,10.51-0.744,15.539-2.21c5.169-1.506,10.04-3.752,14.481-6.676l0.448-0.297l0.016-0.535
				c0.161-5.431-0.415-10.763-1.712-15.848c-1.271-4.99-3.239-9.747-5.845-14.142c-2.589-4.363-5.805-8.367-9.562-11.896
				c-3.78-3.552-8.103-6.621-12.851-9.123L50.006,97.581z"/>
		</g>
	</g>
	<path class="st26" d="M49.986,101.622c13.984,8.207,22.579,20.517,25.944,36.676c-17.232,9.865-34.757,9.657-51.834,0
		C27.321,122.193,36.173,109.617,49.986,101.622"/>
	<polyline class="st10" points="25.267,141.585 26.755,142.313 25.68,144.964 28.484,143.159 30.151,143.974 26.957,145.789 
		27.874,150.21 26.024,149.304 25.423,145.602 24.269,148.446 22.78,147.719 	"/>
	<polyline class="st10" points="31.165,144.415 32.695,145.027 31.017,150.09 33.327,151.014 32.915,152.259 29.074,150.724 	"/>
	<polyline class="st10" points="36.11,146.259 37.675,146.752 35.991,153.206 34.424,152.712 	"/>
	<path class="st10" d="M38.992,147.173l1.996,0.426l1.039,4.322c0.036,0.146,0.072,0.346,0.109,0.599
		c0.037,0.253,0.063,0.285,0.099,0.65c0.007-0.336,0.032-0.367,0.056-0.643c0.025-0.278,0.057-0.529,0.097-0.755l0.661-3.734
		l1.444,0.309l-1.166,6.59l-1.988-0.425l-1.081-4.48c-0.051-0.207-0.092-0.428-0.123-0.664c-0.032-0.236-0.054-0.49-0.067-0.763
		c-0.012,0.405-0.035,0.774-0.067,1.11s-0.069,0.628-0.114,0.879l-0.616,3.479l-1.445-0.309"/>
	<path class="st10" d="M50.973,148.776l-0.187,1.39c-0.244-0.164-0.501-0.289-0.77-0.378c-0.27-0.087-0.548-0.137-0.834-0.147
		c-0.667-0.027-1.2,0.157-1.599,0.549c-0.398,0.392-0.608,0.938-0.63,1.64c-0.021,0.677,0.133,1.222,0.463,1.634
		c0.332,0.414,0.788,0.631,1.37,0.653c0.123,0.005,0.235,0.003,0.34-0.005c0.103-0.009,0.201-0.025,0.294-0.046l0.045-1.403
		l-0.942-0.036l0.04-1.267l2.456,0.095l-0.119,3.739c-0.325,0.087-0.661,0.15-1.009,0.188c-0.347,0.037-0.705,0.049-1.068,0.034
		c-1.189-0.046-2.083-0.375-2.681-0.987c-0.599-0.612-0.881-1.484-0.844-2.613c0.035-1.13,0.376-1.996,1.022-2.601
		c0.645-0.603,1.535-0.883,2.665-0.841c0.338,0.013,0.673,0.054,1.005,0.121C50.323,148.563,50.649,148.656,50.973,148.776"/>
	<path class="st10" d="M56.44,148.265l-0.011,1.391c-0.258-0.092-0.503-0.155-0.736-0.191s-0.457-0.044-0.67-0.023
		c-0.329,0.032-0.581,0.112-0.756,0.245c-0.174,0.132-0.254,0.299-0.238,0.5c0.012,0.141,0.069,0.258,0.171,0.355
		c0.101,0.096,0.249,0.169,0.443,0.221c0.065,0.015,0.157,0.038,0.278,0.068c0.716,0.181,1.196,0.353,1.44,0.52
		c0.229,0.162,0.403,0.354,0.521,0.578c0.119,0.224,0.19,0.493,0.215,0.807c0.058,0.736-0.12,1.32-0.534,1.749
		c-0.415,0.431-1.044,0.686-1.89,0.768c-0.305,0.03-0.613,0.035-0.924,0.018c-0.31-0.018-0.621-0.059-0.931-0.124l0.018-1.503
		c0.297,0.113,0.583,0.193,0.859,0.241s0.533,0.06,0.773,0.037c0.32-0.031,0.568-0.121,0.742-0.269
		c0.175-0.15,0.254-0.338,0.235-0.565c-0.022-0.279-0.338-0.503-0.95-0.671c-0.145-0.04-0.259-0.072-0.339-0.096
		c-0.599-0.173-1.034-0.399-1.307-0.679c-0.272-0.279-0.427-0.653-0.465-1.124c-0.053-0.672,0.124-1.209,0.532-1.612
		c0.409-0.402,1.021-0.643,1.838-0.722c0.301-0.029,0.59-0.037,0.87-0.024C55.905,148.173,56.176,148.207,56.44,148.265"/>
	<path class="st10" d="M59.539,148.757l0.37,1.912l0.421-0.099c0.319-0.075,0.545-0.208,0.678-0.4
		c0.134-0.191,0.171-0.439,0.111-0.742c-0.063-0.326-0.191-0.555-0.388-0.685c-0.194-0.13-0.449-0.159-0.763-0.086 M57.716,147.946
		l2.136-0.498c0.836-0.195,1.488-0.169,1.954,0.078c0.466,0.246,0.769,0.727,0.908,1.439c0.138,0.715,0.046,1.304-0.279,1.768
		c-0.323,0.463-0.863,0.784-1.615,0.959l-0.681,0.159l0.442,2.291l-1.594,0.371L57.716,147.946z"/>
	<path class="st10" d="M66.276,146.751c-0.401,0.143-0.668,0.447-0.799,0.912c-0.132,0.467-0.104,1.017,0.083,1.651
		c0.189,0.639,0.46,1.104,0.816,1.398c0.355,0.293,0.734,0.368,1.138,0.224c0.402-0.143,0.665-0.447,0.794-0.91
		c0.128-0.465,0.098-1.018-0.092-1.658c-0.188-0.633-0.458-1.095-0.812-1.39C67.051,146.685,66.675,146.608,66.276,146.751
		 M65.909,145.508c0.903-0.323,1.695-0.279,2.379,0.132c0.684,0.41,1.181,1.138,1.491,2.187c0.311,1.051,0.3,1.963-0.035,2.732
		c-0.334,0.77-0.953,1.315-1.854,1.638c-0.909,0.325-1.705,0.283-2.39-0.123c-0.684-0.407-1.181-1.136-1.492-2.187
		c-0.309-1.048-0.297-1.96,0.039-2.733C64.383,146.38,65.003,145.832,65.909,145.508"/>
	<path class="st10" d="M71.816,144.43l0.638,1.573l0.523-0.256c0.323-0.158,0.538-0.34,0.646-0.547
		c0.109-0.207,0.112-0.439,0.008-0.696c-0.111-0.276-0.283-0.436-0.516-0.477c-0.232-0.042-0.541,0.032-0.929,0.221 M69.923,144.064
		l2.218-1.085c0.74-0.361,1.342-0.498,1.806-0.41c0.464,0.089,0.806,0.401,1.024,0.94c0.162,0.396,0.2,0.77,0.115,1.118
		s-0.289,0.654-0.612,0.914c0.343-0.026,0.715,0.194,1.116,0.659l0.002,0.004l1.491,1.707l-1.553,0.758l-1.172-1.438
		c-0.189-0.232-0.371-0.366-0.55-0.403c-0.178-0.036-0.411,0.015-0.699,0.155l-0.216,0.106l0.972,2.394l-1.457,0.713L69.923,144.064
		z"/>
	<path class="st10" d="M49.986,115.98l-1.747,0.486c0,0,0.298,2.296-2.286,3.67s-8.221,5.529-8.221,19.992l2.539,1.552l2.547-1.561
		c0-8.871,2.416-15.058,7.169-15.527"/>
	<path class="st10" d="M49.986,121.851c6.092,0,9.567,5.959,9.567,20.045l-2.508-1.58c0-8.97-2.379-15.223-7.059-15.698"/>
	<path class="st27" d="M54.187,119.711c-2.221-1.214-2.026-3.171-2.016-3.251c0.029-0.225-0.113-0.438-0.332-0.5l-1.634-0.458
		c-0.104-0.053-0.225-0.065-0.339-0.033l-1.72,0.491c-0.215,0.062-0.355,0.274-0.33,0.496c0.01,0.083,0.206,2.04-2.015,3.254
		c-5.452,2.978-8.334,10.107-8.334,20.616c0,0.157,0.081,0.304,0.215,0.389l2.5,1.569c0.15,0.094,0.341,0.094,0.491,0l2.509-1.58
		c0.134-0.084,0.215-0.231,0.215-0.388c0-9.088,2.464-14.776,6.597-15.237c4.133,0.46,6.598,6.15,6.598,15.237
		c0,0.157,0.081,0.303,0.215,0.388l2.509,1.58c0.076,0.047,0.161,0.071,0.246,0.071s0.17-0.024,0.246-0.071l2.499-1.569
		c0.134-0.085,0.215-0.232,0.215-0.389C62.522,129.819,59.639,122.69,54.187,119.711 M57.513,140.063
		c-0.047-9.633-2.765-15.423-7.473-15.902c-0.018-0.002-0.035-0.001-0.054,0l-0.001-2.309c-6.013,0-9.475,5.805-9.565,19.497
		l-2.032-1.276c0.045-10.012,2.759-16.771,7.855-19.555c2.161-1.18,2.474-2.974,2.501-3.77l1.233-0.352l0.009,0.003v5.454
		c6.013,0,9.477,5.804,9.567,19.494L57.513,140.063z"/>
	<path class="st10" d="M47.277,109.557c0,0,1.161-0.931,1.593-1.795c0.434-0.864,1.142-2.613,1.142-2.613l0.328,0.328v7.986
		l-2.198,0.501c0,0,0.011-1.4-0.205-2.205C47.596,110.489,47.277,109.557,47.277,109.557"/>
	<path class="st27" d="M52.999,109.316c-1.331-1.168-2.224-2.676-2.656-4.477c-0.039-0.165-0.187-0.28-0.356-0.28
		s-0.316,0.117-0.354,0.28c-0.429,1.806-1.351,3.349-2.662,4.461c-0.123,0.103-0.163,0.274-0.1,0.42
		c0.553,1.296,0.845,2.737,0.865,4.283c0.002,0.109,0.054,0.213,0.139,0.28c0.084,0.068,0.197,0.094,0.304,0.071l1.809-0.393
		l1.818,0.393c0.027,0.006,0.052,0.009,0.078,0.009c0.084,0,0.164-0.029,0.232-0.082c0.084-0.069,0.134-0.174,0.134-0.285
		c-0.011-1.47,0.275-2.905,0.845-4.265C53.156,109.586,53.117,109.419,52.999,109.316 M48.454,113.549
		c-0.062-1.379-0.334-2.679-0.81-3.869c1.017-0.919,1.8-2.082,2.311-3.416l-0.01,6.965c-0.011,0.001-0.023,0.001-0.035,0.004
		L48.454,113.549z"/>
</g>
</svg>
