<?xml version="1.0" encoding="utf-8"?>
<!-- Generator: Adobe Illustrator 24.0.3, SVG Export Plug-In . SVG Version: 6.00 Build 0)  -->
<svg version="1.1" id="Capa_1" xmlns="http://www.w3.org/2000/svg" xmlns:xlink="http://www.w3.org/1999/xlink" x="0px" y="0px"
	 width="300px" height="75.988px" viewBox="0 0 300 75.988" style="enable-background:new 0 0 300 75.988;" xml:space="preserve">
<style type="text/css">
	.st0{fill:#231F20;}
</style>
<g>
	<path class="st0" d="M51.393,49.895c-0.12,1.327-0.301,2.134-0.542,2.417c-0.241,0.28-0.584,0.379-1.026,0.301
		c-0.966-0.163-1.571-0.704-1.812-1.631c-0.12-0.241-0.163-0.554-0.12-0.936c0.039-0.382,0.099-0.755,0.181-1.117
		c0.159-1.168,0.473-2.688,0.936-4.56c0.463-1.872,0.954-3.804,1.478-5.797c0.524-1.993,1.038-3.883,1.541-5.677
		c0.503-1.791,0.915-3.169,1.237-4.136c0.846-2.414,1.64-4.728,2.387-6.944c0.743-2.215,1.418-4.53,2.023-6.944
		c-0.686,0.442-1.348,0.906-1.993,1.388c-0.644,0.485-1.309,0.987-1.993,1.511c-3.139,2.616-6.149,5.333-9.03,8.151
		c-2.877,2.817-5.707,5.779-8.482,8.876c-0.767,0.846-1.562,1.722-2.387,2.628c-0.825,0.906-1.619,1.863-2.384,2.868
		c-0.283,0.361-0.554,0.734-0.816,1.117c-0.262,0.382-0.575,0.635-0.936,0.755c-0.202,0.081-0.463,0.111-0.786,0.09
		c-0.322-0.018-0.644-0.06-0.966-0.12c-0.322-0.06-0.605-0.151-0.846-0.271c-0.241-0.12-0.382-0.262-0.421-0.424
		c-0.081-0.078-0.102-0.25-0.06-0.512c0.039-0.262,0.06-0.494,0.06-0.695c0-0.563,0.048-1.147,0.15-1.752
		c0.099-0.602,0.211-1.186,0.331-1.752c0.12-0.563,0.241-1.117,0.364-1.658c0.12-0.545,0.259-1.056,0.421-1.541
		c0.322-1.087,0.635-2.152,0.936-3.199c0.301-1.047,0.593-2.074,0.876-3.082c0.644-2.173,1.267-4.277,1.872-6.309
		c0.602-2.032,1.126-4.157,1.568-6.372c-1.971,2.095-3.913,4.238-5.827,6.432c-1.911,2.194-3.774,4.5-5.583,6.914
		c-1.168,1.532-2.336,3.091-3.504,4.68c-1.168,1.592-2.275,3.23-3.32,4.921c-1.047,1.731-2.095,3.434-3.142,5.102
		c-1.047,1.674-2.053,3.413-3.019,5.225c-0.524,1.005-0.927,1.971-1.207,2.899c-0.163,0.482-0.283,1.017-0.361,1.601
		C7.111,52.923,6.949,53.477,6.708,54c-0.524,0.846-1.288,1.348-2.294,1.511c-0.442,0.078-0.927,0.06-1.451-0.06
		c-0.524-0.12-1.005-0.304-1.448-0.545C1.074,54.666,0.709,54.365,0.426,54c-0.28-0.361-0.421-0.765-0.421-1.207
		c-0.039-0.482,0.151-0.996,0.575-1.541c0.421-0.542,0.795-1.035,1.117-1.478c1.529-2.498,3.028-4.96,4.497-7.398
		c1.472-2.435,3.031-4.801,4.68-7.094c3.221-4.428,6.462-8.726,9.722-12.894c3.263-4.166,6.866-8.082,10.811-11.745
		c0.199-0.202,0.4-0.391,0.602-0.572c0.202-0.184,0.403-0.373,0.605-0.575c0.16-0.202,0.301-0.412,0.421-0.635
		c0.12-0.22,0.283-0.37,0.485-0.451c0.202-0.12,0.442-0.241,0.725-0.361c0.28-0.123,0.581-0.141,0.906-0.063
		c0.28,0.042,0.551,0.123,0.813,0.244c0.262,0.12,0.536,0.22,0.816,0.301c0.644,0.283,1.27,0.665,1.872,1.147
		c0.605,0.485,0.906,1.189,0.906,2.113c-0.039,0.445-0.151,0.936-0.331,1.481c-0.181,0.545-0.334,1.035-0.454,1.481
		c-0.442,1.529-0.927,2.947-1.448,4.256c-0.524,1.309-1.047,2.667-1.571,4.075c-0.683,1.974-1.297,3.907-1.842,5.797
		c-0.542,1.893-1.138,3.786-1.782,5.677c0.605-0.442,1.159-0.936,1.661-1.478c0.503-0.545,1.017-1.059,1.541-1.541
		c2.576-2.697,5.222-5.346,7.94-7.94c2.718-2.598,5.526-5.105,8.425-7.519c0.563-0.485,1.135-0.957,1.722-1.421
		c0.581-0.461,1.195-0.915,1.839-1.357c0.566-0.442,1.168-0.864,1.812-1.267c0.644-0.403,1.249-0.867,1.812-1.391
		c0.322-0.039,0.653-0.09,0.996-0.151c0.343-0.06,0.674-0.03,0.996,0.09c0.202,0.042,0.503,0.262,0.906,0.665
		c0.403,0.403,0.644,0.704,0.725,0.906c0.039,0.322-0.009,0.665-0.151,1.026c-0.141,0.361-0.253,0.704-0.334,1.026
		c-0.28,0.927-0.593,1.842-0.936,2.748c-0.34,0.906-0.674,1.821-0.996,2.748c-0.4,1.288-0.795,2.546-1.177,3.774
		c-0.382,1.228-0.795,2.426-1.237,3.591c-0.442,1.291-0.966,2.95-1.571,4.981c-0.602,2.035-1.207,4.148-1.812,6.342
		c-0.602,2.194-1.177,4.328-1.719,6.402C52.028,46.864,51.636,48.568,51.393,49.895z"/>
	<path class="st0" d="M104.291,6.598v0.06c-0.081,0.12-0.129,0.151-0.151,0.09c-0.021-0.06-0.051-0.048-0.09,0.03
		c-0.885-0.202-1.773-0.322-2.658-0.361c-0.885-0.039-1.77-0.009-2.655,0.09C97.85,6.607,96.974,6.73,96.11,6.869
		c-0.867,0.141-1.722,0.295-2.567,0.455c-1.731,0.322-3.452,0.662-5.162,1.026c-1.713,0.361-3.452,0.746-5.225,1.147
		c-0.361,0.081-0.774,0.163-1.237,0.241c-0.463,0.081-0.915,0.163-1.357,0.244c-1.249,0.322-2.516,0.674-3.804,1.056
		c-1.291,0.382-2.576,0.855-3.865,1.418c-0.807,0.202-1.64,0.494-2.507,0.876c-0.867,0.382-1.722,0.816-2.567,1.297
		c-0.442,0.202-0.876,0.424-1.297,0.665c-0.421,0.241-0.876,0.464-1.357,0.665c-0.403,0.241-0.837,0.464-1.3,0.662
		c-0.464,0.205-0.897,0.184-1.297-0.06c-0.163-0.12-0.301-0.31-0.421-0.572c-0.123-0.262-0.144-0.575-0.063-0.936
		c0.403-0.524,0.825-0.915,1.27-1.177c0.442-0.262,0.885-0.515,1.327-0.755c1.33-0.725,2.658-1.379,3.985-1.962
		c1.33-0.584,2.637-1.159,3.925-1.722c1.692-0.804,3.413-1.541,5.165-2.203c1.752-0.665,3.51-1.3,5.282-1.902
		c0.927-0.244,1.812-0.464,2.658-0.665c0.846-0.202,1.731-0.403,2.658-0.605c1.731-0.361,3.479-0.641,5.252-0.843
		c1.773-0.202,3.564-0.304,5.376-0.304c0.4,0.081,0.816,0.111,1.237,0.09c0.421-0.018,0.876,0.012,1.357,0.09
		c0.566,0.163,1.108,0.325,1.631,0.485c0.524,0.163,1.047,0.542,1.571,1.147c0,0.081-0.042,0.072-0.12-0.03
		c-0.081-0.099-0.141-0.051-0.184,0.151c0,0.163,0.051,0.274,0.153,0.334c0.099,0.06,0.108,0.111,0.03,0.151
		c0,0.081-0.06,0.12-0.184,0.12c0,0.202,0.012,0.322,0.033,0.361c0.018,0.042,0.009,0.12-0.033,0.241
		c-0.039,0.123-0.06,0.144-0.06,0.063c0-0.081-0.039-0.042-0.12,0.12c-0.039,0.16-0.03,0.25,0.03,0.271
		C104.381,6.529,104.372,6.559,104.291,6.598z M69.629,53.398c-0.12,0.039-0.22,0.048-0.301,0.03
		c-0.081-0.021-0.202-0.03-0.361-0.03c-0.244,0.078-0.445,0.099-0.605,0.06c-0.081,0-0.193-0.06-0.331-0.181
		c-0.141-0.123-0.253-0.223-0.334-0.304c-0.202,0.039-0.331,0.021-0.391-0.06c-0.06-0.081-0.132-0.159-0.211-0.241
		c-0.163-0.202-0.232-0.485-0.214-0.846c0.021-0.361,0.081-0.777,0.184-1.237c0.099-0.464,0.22-0.927,0.361-1.391
		c0.141-0.463,0.271-0.897,0.391-1.297c0.202-0.765,0.455-1.61,0.756-2.537c0.301-0.924,0.575-1.77,0.816-2.534
		c0.683-1.812,1.288-3.543,1.812-5.195c0.524-1.649,1.126-3.281,1.812-4.891c0.683-1.692,1.327-3.341,1.932-4.951
		c0.602-1.61,1.246-3.178,1.932-4.71c0.28-0.765,0.584-1.55,0.906-2.354c0.322-0.807,0.644-1.631,0.966-2.477
		c0.322-0.804,0.644-1.589,0.966-2.354c0.322-0.765,0.581-1.529,0.786-2.297c0.039-0.199,0.048-0.391,0.03-0.572
		c-0.021-0.181,0.009-0.373,0.09-0.575c0.16-0.241,0.451-0.461,0.876-0.665c0.421-0.199,0.774-0.319,1.056-0.361
		c0.4-0.081,0.825-0.051,1.267,0.09c0.442,0.141,0.846,0.343,1.207,0.605c0.364,0.262,0.644,0.572,0.846,0.936
		c0.202,0.361,0.283,0.725,0.241,1.087c-0.081,0.482-0.271,0.906-0.572,1.267c-0.304,0.364-0.575,0.746-0.816,1.147
		c-0.563,0.927-1.087,1.893-1.571,2.898c-0.482,1.008-0.966,2.035-1.448,3.082c-0.686,1.327-1.3,2.736-1.842,4.226
		c-0.545,1.49-1.159,2.959-1.842,4.409c-0.686,1.448-1.288,2.899-1.812,4.346c-0.322,0.725-0.635,1.46-0.936,2.203
		c-0.301,0.746-0.554,1.502-0.755,2.266c-0.241,0.765-0.512,1.52-0.813,2.263c-0.304,0.746-0.617,1.52-0.936,2.324
		c-0.283,0.765-0.545,1.52-0.786,2.266c-0.244,0.743-0.524,1.478-0.846,2.203c-0.081,0.241-0.193,0.494-0.331,0.755
		c-0.144,0.262-0.253,0.512-0.334,0.755c-0.202,0.442-0.361,0.906-0.482,1.388C69.873,52.432,69.75,52.914,69.629,53.398z"/>
	<path class="st0" d="M102.299,54.181c-2.053,1.129-3.525,1.923-4.41,2.387c-0.885,0.464-1.46,0.765-1.722,0.906
		c-0.262,0.141-0.352,0.19-0.271,0.151c0.081-0.039,0.039-0.039-0.12,0c-0.163,0.039-0.584,0.22-1.267,0.545
		c-0.686,0.322-1.893,0.906-3.624,1.749c0.039-0.12-0.313-0.039-1.056,0.244c-0.746,0.28-1.631,0.611-2.658,0.996
		c-1.026,0.382-2.065,0.743-3.109,1.087c-1.047,0.34-1.872,0.512-2.477,0.512c-0.322,0.081-0.593,0.072-0.816-0.03
		c-0.22-0.099-0.473-0.19-0.752-0.271c-0.244,0-0.494,0-0.755,0c-0.262,0-0.503-0.03-0.725-0.09c-0.22-0.06-0.4-0.181-0.542-0.361
		c-0.141-0.184-0.214-0.455-0.214-0.816c-0.039-0.686,0.151-1.3,0.575-1.842c0.421-0.545,0.837-1.078,1.237-1.601
		c2.456-2.778,4.942-5.204,7.459-7.275c2.516-2.074,5.153-3.886,7.91-5.436c2.757-1.55,5.668-2.92,8.726-4.105
		c3.058-1.189,6.342-2.306,9.842-3.353c0.081-0.725-0.039-1.439-0.361-2.143c-0.322-0.704-0.704-1.276-1.147-1.722
		c-0.846-0.644-1.932-1.228-3.263-1.752c-1.327-0.521-2.697-0.783-4.105-0.783c-1.731-0.042-3.461,0.018-5.192,0.181
		c-1.731,0.159-3.503,0.343-5.315,0.542c-0.563,0.081-1.147,0.132-1.752,0.151c-0.602,0.021-1.168-0.069-1.689-0.271
		c-0.163-0.039-0.322-0.099-0.485-0.181c-0.16-0.081-0.343-0.16-0.542-0.241c-0.364-0.12-0.674-0.202-0.936-0.241
		c-0.262-0.042-0.554-0.163-0.876-0.364c-0.241-0.202-0.506-0.503-0.786-0.906c-0.283-0.4-0.421-0.885-0.421-1.448
		c0-0.605,0.12-1.24,0.361-1.902c0.241-0.665,0.503-1.24,0.786-1.722c0.322-0.644,0.653-1.186,0.996-1.631
		c0.34-0.442,0.674-0.864,0.996-1.267c3.1-3.663,6.703-6.682,10.808-9.057c1.047-0.686,2.182-1.279,3.413-1.782
		c1.225-0.503,2.525-0.855,3.895-1.056c0.319-0.081,0.701-0.132,1.147-0.154c0.442-0.018,0.846-0.048,1.207-0.09
		c0.804-0.078,1.55-0.12,2.233-0.12c0.686,0,1.27,0.223,1.752,0.665c0.159,0.081,0.301,0.202,0.424,0.361
		c0.12,0.163,0.34,0.283,0.662,0.364c0.081,0.28,0.09,0.554,0.03,0.813c-0.06,0.265-0.129,0.515-0.211,0.755
		c0.16,0.081,0.232,0.072,0.211-0.03c-0.021-0.099,0.009-0.108,0.09-0.03c-0.081,0.445-0.181,0.825-0.301,1.147
		c-0.12,0.325-0.241,0.707-0.361,1.15c-0.283,0.722-0.524,1.306-0.725,1.749c-0.12,0.202-0.241,0.415-0.361,0.635
		c-0.123,0.223-0.202,0.454-0.244,0.695c-0.28-0.081-0.421-0.051-0.421,0.09c0,0.141-0.042,0.271-0.12,0.391
		c-0.202-0.039-0.394-0.03-0.575,0.03c-0.181,0.06-0.373,0.09-0.572,0.09c-0.123-0.039-0.202-0.069-0.244-0.09
		c-0.039-0.018-0.12-0.009-0.241,0.03c-0.163,0.042-0.301,0.132-0.421,0.274c-0.12,0.141-0.283,0.15-0.485,0.03
		c-0.039-0.524-0.021-1.008,0.06-1.451c0.081-0.442,0.193-0.876,0.334-1.297c0.138-0.424,0.28-0.846,0.421-1.27
		c0.141-0.421,0.25-0.855,0.331-1.297c-0.765,0-1.55,0.081-2.354,0.241c-0.807,0.163-1.55,0.385-2.233,0.665
		c-0.566,0.202-1.078,0.442-1.541,0.725c-0.463,0.283-0.975,0.542-1.541,0.786c-2.092,1.005-3.964,2.074-5.613,3.199
		c-0.445,0.241-0.837,0.563-1.18,0.966c-0.34,0.403-0.674,0.807-0.996,1.207c-1.047,1.087-2.044,2.275-2.989,3.564
		c-0.945,1.288-1.64,2.739-2.083,4.346c0.361,0.205,0.725,0.265,1.087,0.184c1.773,0.039,3.612-0.03,5.526-0.214
		c1.911-0.181,3.714-0.229,5.406-0.151c1.607,0.081,3.157,0.262,4.647,0.545c1.49,0.283,2.847,0.704,4.078,1.267
		c1.225,0.566,2.285,1.309,3.169,2.233c0.885,0.927,1.568,2.074,2.053,3.443c1.451-0.361,2.748-0.644,3.895-0.846
		c1.147-0.202,2.275-0.37,3.383-0.512c1.105-0.141,2.281-0.262,3.531-0.364c1.249-0.099,2.679-0.232,4.289-0.391
		c0,0.12-0.06,0.172-0.184,0.15c-0.12-0.021-0.202,0.009-0.241,0.09c0.081,0.12,0.232,0.181,0.454,0.181
		c0.22,0,0.43-0.018,0.632-0.06c-0.361,0.12-0.674,0.253-0.936,0.394c-0.262,0.141-0.632,0.232-1.117,0.271
		c0.081,0.081,0.211,0.099,0.394,0.06c0.181-0.039,0.352-0.06,0.512-0.06c-0.241,0.241-0.554,0.361-0.936,0.361
		c-0.382,0-0.795,0.06-1.237,0.181c0.12,0.081,0.34,0.081,0.665,0c-0.042,0.042-0.06,0.102-0.06,0.184
		c-0.445,0.159-0.897,0.271-1.36,0.331c-0.464,0.06-0.975,0.132-1.538,0.211c-1.451,0.322-2.456,0.536-3.022,0.635
		c-0.563,0.099-0.936,0.16-1.117,0.181c-0.181,0.021-0.292,0.051-0.331,0.09c-0.042,0.042-0.301,0.141-0.786,0.301
		c-0.081,0.042-0.163,0.093-0.241,0.153c-0.081,0.06-0.181,0.09-0.301,0.09c-0.445,0.202-0.927,0.343-1.451,0.421
		c-0.524,0.081-1.005,0.223-1.448,0.424l-0.364,0.241c-0.202,0.12-0.442,0.202-0.725,0.241c-0.28,0.042-0.482,0.163-0.602,0.361
		c-0.202,0.566-0.445,1.12-0.725,1.661c-0.283,0.545-0.584,1.078-0.906,1.601c-0.241,0.322-0.464,0.623-0.665,0.906
		c-0.202,0.283-0.464,0.584-0.783,0.906c-0.485,0.602-0.948,1.126-1.391,1.568c-1.288,1.288-2.658,2.477-4.105,3.564
		c-0.163,0.081-0.292,0.19-0.394,0.331c-0.099,0.141-0.25,0.232-0.451,0.274c-0.081,0.039-0.102,0.078-0.06,0.12
		c0.039,0.039,0,0.099-0.12,0.181c-0.364,0.202-0.695,0.421-0.996,0.665c-0.304,0.241-0.674,0.442-1.117,0.602
		c-0.283,0.364-0.677,0.716-1.18,1.056C103.334,53.528,102.819,53.859,102.299,54.181z M112.201,40.778
		c-0.081,0-0.141,0.009-0.181,0.03c-0.042,0.018-0.081,0.03-0.12,0.03c0.199-0.081,0.361-0.223,0.482-0.424
		c-1.49,0.605-2.778,1.117-3.865,1.541c-1.087,0.421-2.074,0.816-2.959,1.177c-0.885,0.361-1.731,0.746-2.534,1.147
		c-0.807,0.403-1.661,0.846-2.567,1.33c-0.906,0.482-1.902,1.066-2.989,1.749c-1.087,0.686-2.378,1.49-3.865,2.417
		c-1.451,1.047-2.558,1.86-3.323,2.444c-0.764,0.584-1.409,1.108-1.932,1.571c-0.524,0.463-1.035,0.915-1.538,1.357
		c-0.506,0.442-1.18,1.047-2.023,1.812c-0.205,0.163-0.355,0.352-0.455,0.575c-0.099,0.22-0.232,0.412-0.391,0.575
		c-0.244,0.319,0.22,0.34,1.388,0.06c1.168-0.283,2.718-0.786,4.65-1.511c1.932-0.725,4.084-1.64,6.462-2.748
		c2.375-1.108,4.647-2.354,6.823-3.744c2.173-1.388,4.084-2.877,5.737-4.467C110.651,44.107,111.72,42.467,112.201,40.778z
		 M125.908,36.79c-0.28,0-0.442,0.021-0.482,0.06c0.078-0.039,0.172-0.039,0.271,0C125.797,36.892,125.869,36.871,125.908,36.79z
		 M130.318,35.824c-0.042,0-0.06,0.012-0.06,0.03c0,0.021-0.021,0.03-0.06,0.03c0.039,0,0.06-0.009,0.06-0.03
		C130.257,35.836,130.275,35.824,130.318,35.824z"/>
	<path class="st0" d="M205.074,34.797c-0.081,0.244-0.262,0.355-0.545,0.334c-0.28-0.021-0.482,0.009-0.602,0.09
		c0.039,0.039-0.06,0.111-0.304,0.211c-0.241,0.102-0.482,0.202-0.722,0.301c-0.244,0.102-0.415,0.181-0.515,0.244
		c-0.099,0.06,0.03,0.03,0.394-0.093c0.039,0.123-0.274,0.274-0.936,0.455c-0.665,0.181-1.412,0.352-2.236,0.512
		c-0.825,0.163-1.61,0.304-2.354,0.424c-0.746,0.12-1.177,0.181-1.3,0.181c-0.482,0.042-1.168,0.141-2.053,0.301
		c-0.885,0.163-1.812,0.355-2.778,0.575c-0.966,0.223-1.902,0.421-2.805,0.605c-0.906,0.181-1.622,0.31-2.146,0.391l-0.12,0.12
		v-0.06c-0.283,0.202-0.563,0.424-0.846,0.665c-0.28,0.241-0.683,0.584-1.207,1.026c-0.442,0.442-0.897,0.876-1.357,1.297
		c-0.464,0.424-0.936,0.795-1.421,1.117c-0.241,0.283-0.482,0.524-0.725,0.725c-0.241,0.202-0.524,0.403-0.843,0.605
		c-0.205,0.28-0.433,0.491-0.695,0.632c-0.262,0.141-0.536,0.334-0.816,0.575c-0.241,0.202-0.503,0.403-0.786,0.605
		c-0.283,0.199-0.563,0.4-0.846,0.602c-0.804,0.563-1.61,1.159-2.414,1.782c-0.807,0.623-1.61,1.216-2.417,1.782
		c-0.966,0.524-1.872,1.108-2.718,1.752c-0.843,0.644-1.77,1.186-2.775,1.628c-0.205,0.123-0.403,0.262-0.605,0.424
		c-0.202,0.16-0.463,0.241-0.786,0.241c-0.563,0.364-1.168,0.734-1.812,1.117c-0.644,0.382-1.327,0.695-2.053,0.936
		c-0.524,0.283-1.047,0.515-1.571,0.695c-0.524,0.181-1.066,0.391-1.628,0.635c-0.081-0.042-0.081-0.03,0,0.03
		c0.078,0.06,0.078,0.09,0,0.09c-0.283,0.078-0.524,0.172-0.725,0.271c-0.202,0.099-0.403,0.19-0.605,0.271
		c-0.28,0.12-0.584,0.253-0.906,0.394c-0.322,0.138-0.623,0.31-0.906,0.512c-0.159-0.081-0.271-0.081-0.331,0
		c-0.06,0.081-0.172,0.12-0.331,0.12c-0.364,0.322-0.807,0.566-1.33,0.725c-0.524,0.16-1.005,0.364-1.448,0.605h-0.241
		c-1.047,0.482-2.083,0.924-3.112,1.327c-1.026,0.403-2.122,0.746-3.29,1.026c-0.081,0.039-0.132,0.09-0.15,0.151
		c-0.021,0.06-0.09,0.111-0.211,0.153c-0.566,0.16-1.077,0.319-1.541,0.482c-0.464,0.16-1.035,0.262-1.722,0.301
		c-0.081,0-0.111,0.042-0.09,0.123c0.021,0.078-0.009,0.12-0.09,0.12c-0.322,0-0.593,0.048-0.816,0.151
		c-0.22,0.099-0.451,0.151-0.695,0.151c-1.529,0.28-3.178,0.482-4.951,0.605c-1.77,0.12-3.479-0.042-5.132-0.485l-0.545-0.241
		c-0.241-0.081-0.473-0.132-0.692-0.15c-0.223-0.021-0.473-0.09-0.755-0.214c-0.485-0.241-0.915-0.572-1.297-0.996
		c-0.382-0.421-0.473-1.056-0.274-1.902c0.163-0.241,0.313-0.494,0.455-0.752c0.141-0.262,0.25-0.494,0.331-0.695
		c0.283-0.644,0.665-1.228,1.147-1.752c0.485-0.524,0.948-0.987,1.391-1.388c0.16-0.283,0.373-0.515,0.632-0.695
		c0.265-0.181,0.494-0.391,0.695-0.635c1.571-1.246,3.121-2.324,4.65-3.23c1.529-0.906,3.079-1.722,4.65-2.447
		c1.568-0.722,3.178-1.43,4.831-2.113c1.649-0.683,3.401-1.448,5.252-2.294c0.244-0.807,0.545-1.743,0.906-2.808
		c0.364-1.066,0.746-2.143,1.147-3.23c0.403-1.09,0.795-2.146,1.18-3.172c0.382-1.026,0.692-1.941,0.936-2.748
		c0.078-0.4,0.199-0.701,0.361-0.906c0.039-0.319,0.081-0.581,0.12-0.783c0.039-0.202,0.12-0.382,0.241-0.545
		c0.765-2.134,1.511-4.217,2.236-6.248c0.722-2.035,1.529-4.018,2.414-5.951l0.725-1.872c0.081-0.199,0.181-0.349,0.301-0.451
		c0.12-0.099,0.181-0.292,0.181-0.575c-0.12-0.199-0.241-0.25-0.361-0.151c-0.12,0.102-0.262,0.193-0.421,0.274
		c-1.974,0.722-3.576,1.306-4.801,1.749c-1.231,0.445-2.306,0.846-3.233,1.21c-0.927,0.361-1.83,0.752-2.718,1.177
		c-0.885,0.421-1.95,0.996-3.2,1.722c-0.322,0.202-0.644,0.43-0.966,0.692c-0.322,0.262-0.683,0.454-1.087,0.575
		c-0.361,0.202-0.746,0.373-1.147,0.512c-0.403,0.141-0.725,0.334-0.966,0.575c-0.364,0.241-0.704,0.494-1.026,0.755
		c-0.322,0.262-0.765,0.352-1.33,0.271c-0.078,0-0.169-0.03-0.271-0.09c-0.099-0.06-0.211-0.129-0.331-0.211
		c-0.283-0.081-0.524-0.141-0.725-0.181c-0.202-0.042-0.403-0.163-0.605-0.364c-0.12-0.12-0.28-0.271-0.482-0.451
		c-0.202-0.181-0.301-0.334-0.301-0.454c0-0.199,0.181-0.43,0.542-0.692c0.361-0.262,0.584-0.433,0.665-0.515
		c0.202-0.081,0.421-0.172,0.662-0.271c0.244-0.099,0.485-0.232,0.725-0.394c0.566-0.322,1.168-0.641,1.812-0.966
		c0.644-0.322,1.267-0.662,1.872-1.026c0.927-0.442,1.833-0.855,2.718-1.237c0.885-0.382,1.812-0.774,2.778-1.177
		c2.134-0.885,4.346-1.773,6.643-2.658c2.294-0.885,4.65-1.61,7.064-2.173c0.12-0.202,0.22-0.412,0.301-0.635
		c0.081-0.22,0.202-0.412,0.364-0.572v-0.424c0.12-0.241,0.25-0.473,0.391-0.695c0.141-0.22,0.373-0.352,0.695-0.391
		c0.039,0,0.06-0.021,0.06-0.06v-0.12c0.202-0.081,0.37-0.163,0.512-0.244c0.141-0.078,0.274-0.159,0.394-0.241
		c0.804,0.12,1.418,0.373,1.842,0.755c0.421,0.382,0.795,0.837,1.117,1.357c0.885-0.039,1.782-0.12,2.688-0.241
		c0.906-0.12,1.842-0.202,2.808-0.241c1.367-0.081,2.886-0.129,4.557-0.151c1.67-0.021,3.332,0.06,4.984,0.241
		c1.649,0.181,3.23,0.485,4.738,0.906c1.511,0.421,2.787,1.056,3.835,1.902c0.566,0.442,1.09,0.966,1.571,1.571
		c0.485,0.602,0.906,1.186,1.267,1.749c0.364,0.605,0.695,1.261,0.996,1.962c0.304,0.707,0.515,1.46,0.635,2.266
		c0.12,1.047-0.09,2.293-0.635,3.744c-0.542,1.448-1.216,2.898-2.023,4.346c-0.804,1.451-1.649,2.799-2.534,4.045
		c-0.888,1.249-1.61,2.176-2.176,2.778c0.566-0.039,1.219-0.138,1.962-0.301c0.746-0.16,1.49-0.331,2.236-0.515
		c0.743-0.181,1.487-0.34,2.233-0.482c0.743-0.141,1.4-0.25,1.962-0.331c0.403-0.081,0.807-0.132,1.207-0.153
		c0.403-0.018,0.825-0.03,1.27-0.03c0.644-0.12,1.186-0.211,1.628-0.271c0.442-0.06,0.825-0.111,1.15-0.151
		c0.322-0.039,0.632-0.069,0.936-0.09c0.301-0.021,0.671-0.069,1.117-0.151c0.12,0,0.292,0.021,0.512,0.06
		c0.223,0.039,0.334,0.099,0.334,0.181c0.16,0.202,0.199,0.292,0.12,0.271C204.812,34.689,204.872,34.719,205.074,34.797z
		 M176.631,40.474c-3.26,0.888-5.908,1.622-7.94,2.206s-3.633,1.056-4.801,1.418s-1.993,0.626-2.474,0.786
		c-0.485,0.159-0.807,0.262-0.966,0.301c-0.123,0.202-0.205,0.283-0.244,0.241c-1.327,0.364-2.625,0.885-3.895,1.571
		c-1.267,0.683-2.324,1.168-3.169,1.451c-0.322,1.207-0.674,2.303-1.056,3.29c-0.382,0.987-0.795,1.941-1.237,2.868
		c-0.042,0-0.072,0.018-0.09,0.06c-0.021,0.039-0.072,0.06-0.154,0.06c-0.12,0.403-0.28,0.674-0.482,0.816
		c-0.202,0.141-0.412,0.211-0.635,0.211c-0.22,0-0.473-0.03-0.755-0.09c-0.28-0.06-0.563-0.09-0.843-0.09
		c-0.123-0.202-0.193-0.442-0.214-0.725c-0.021-0.283-0.009-0.563,0.03-0.846c0.042-0.322,0.111-0.786,0.214-1.388
		c0.099-0.605,0.211-1.189,0.331-1.752c0.159-0.686,0.301-1.369,0.421-2.053c-0.403,0.081-0.816,0.25-1.237,0.512
		c-0.421,0.262-0.855,0.494-1.297,0.695c-0.202,0.081-0.424,0.141-0.665,0.181c-0.241,0.039-0.464,0.163-0.665,0.364
		c-1.529,0.563-2.898,1.087-4.105,1.568c-1.207,0.485-2.495,1.168-3.865,2.053c-0.924,0.644-1.8,1.21-2.628,1.692
		c-0.825,0.485-1.701,1.087-2.625,1.812c0,0.081,0.009,0.129,0.03,0.15c0.021,0.021,0.009,0.069-0.03,0.151
		c-0.163,0.244-0.334,0.424-0.515,0.545c-0.181,0.12-0.361,0.232-0.545,0.331c-0.181,0.102-0.349,0.223-0.512,0.364
		c-0.159,0.138-0.322,0.331-0.485,0.572c0.042,0.081,0.111,0.102,0.214,0.06c0.099-0.039,0.172-0.039,0.211,0
		c-0.202,0.364-0.433,0.725-0.695,1.087c-0.262,0.364-0.412,0.825-0.451,1.391c0.322,0.241,0.683,0.391,1.087,0.451
		c0.403,0.06,0.816,0.093,1.237,0.093c0.424,0,0.846-0.021,1.267-0.063c0.424-0.039,0.816-0.039,1.18,0
		c0.322-0.081,0.593-0.151,0.816-0.211c0.22-0.06,0.43-0.069,0.632-0.03c0.163-0.039,0.313-0.081,0.455-0.12
		c0.141-0.039,0.25-0.06,0.331-0.06c1.812-0.322,3.503-0.734,5.072-1.237c1.571-0.506,3.142-0.996,4.71-1.481
		c0.12-0.12,0.262-0.232,0.424-0.331c0.16-0.102,0.34-0.15,0.542-0.15c0.159-0.081,0.331-0.172,0.515-0.274
		c0.181-0.099,0.391-0.172,0.632-0.211c1.812-0.807,3.585-1.631,5.315-2.474c1.731-0.846,3.44-1.752,5.132-2.718
		c0.081,0.078,0.129,0.09,0.151,0.03c0.021-0.06,0.072-0.09,0.153-0.09c0.078-0.081,0.19-0.163,0.331-0.244
		c0.141-0.078,0.271-0.16,0.391-0.241c0.283,0,0.533-0.111,0.755-0.331c0.22-0.223,0.433-0.352,0.635-0.394
		c0.482-0.12,1.126-0.382,1.932-0.783c0.804-0.403,1.68-0.876,2.625-1.421c0.948-0.542,1.914-1.126,2.898-1.752
		c0.987-0.623,1.902-1.216,2.748-1.779c0.846-0.566,1.571-1.078,2.176-1.541c0.602-0.464,1.005-0.774,1.207-0.936
		c0.28-0.12,0.644-0.343,1.087-0.665c0.442-0.322,0.915-0.692,1.418-1.117c0.506-0.421,1.038-0.864,1.601-1.327
		c0.563-0.464,1.108-0.876,1.631-1.24c-0.322,0.042-0.828,0.141-1.511,0.304c-0.683,0.159-1.108,0.28-1.267,0.361
		c-0.081,0-0.141,0.042-0.181,0.12C176.892,40.555,176.793,40.555,176.631,40.474z M162.442,42.467
		c1.812-0.521,3.561-1.035,5.252-1.538c1.692-0.503,3.383-0.975,5.072-1.421c1.692-0.442,3.413-0.855,5.165-1.237
		c1.752-0.382,3.573-0.734,5.463-1.056c0.364-0.364,0.795-0.846,1.3-1.451c0.503-0.602,1.014-1.225,1.538-1.872
		c0.524-0.641,1.017-1.267,1.481-1.872c0.464-0.602,0.855-1.087,1.177-1.448c0.361-0.524,0.725-1.126,1.087-1.812
		c0.364-0.683,0.695-1.388,0.996-2.113c0.304-0.725,0.563-1.46,0.786-2.203c0.22-0.746,0.352-1.439,0.394-2.086
		c0.078-1.285-0.223-2.555-0.906-3.804c-0.686-1.246-1.613-2.092-2.778-2.534c-2.336-0.885-4.56-1.46-6.673-1.722
		c-2.113-0.262-4.108-0.34-5.978-0.241c-1.872,0.099-3.615,0.292-5.225,0.572c-1.61,0.283-3.1,0.506-4.47,0.665
		c-0.361,0.725-0.632,1.279-0.813,1.661c-0.184,0.382-0.415,0.816-0.695,1.297c-0.361,0.686-0.626,1.309-0.786,1.872
		c-0.202,0.202-0.322,0.403-0.361,0.605c0,0.12-0.081,0.382-0.244,0.786c-0.16,0.322-0.31,0.623-0.451,0.903
		c-0.141,0.283-0.253,0.605-0.331,0.966c-0.202,0.364-0.373,0.707-0.515,1.029c-0.141,0.322-0.271,0.644-0.391,0.966
		c0,0.12-0.012,0.262-0.03,0.421c-0.021,0.163-0.051,0.343-0.09,0.545l-1.09,2.173c-0.322,0.602-0.593,1.258-0.813,1.962
		c-0.223,0.704-0.433,1.357-0.635,1.962c-0.202,0.683-0.473,1.357-0.816,2.023c-0.343,0.665-0.635,1.339-0.876,2.023
		c-0.12,0.361-0.343,0.936-0.665,1.722c-0.322,0.786-0.644,1.631-0.966,2.537c-0.322,0.903-0.632,1.779-0.933,2.625
		c-0.304,0.846-0.494,1.49-0.575,1.932c0.605-0.159,1.258-0.37,1.962-0.632c0.704-0.262,1.439-0.524,2.203-0.786
		c0.765-0.262,1.511-0.524,2.236-0.786C161.172,42.84,161.837,42.629,162.442,42.467z"/>
	<path class="st0" d="M204.047,41.38c0.12,0.12,0.463,0.072,1.026-0.151c0.563-0.22,1.258-0.524,2.083-0.906
		c0.825-0.382,1.743-0.816,2.748-1.297c1.005-0.485,2.014-0.906,3.019-1.27c0.283-0.078,0.614-0.199,0.996-0.361
		c0.382-0.16,0.674-0.301,0.876-0.421c0.322-0.202,0.644-0.403,0.966-0.605c0.322-0.202,0.704-0.343,1.147-0.421
		c0.163-0.042,0.244-0.111,0.244-0.214c0-0.099,0.018-0.069,0.06,0.09c0.078,0.042,0.138,0.051,0.181,0.03
		c0.039-0.018,0.081-0.009,0.12,0.03c0,0.163-0.102,0.385-0.301,0.665l-0.424,0.364c-0.322,0.28-0.662,0.554-1.026,0.813
		c-0.361,0.265-0.765,0.494-1.207,0.695c-0.361,0.322-0.795,0.626-1.297,0.906c-0.506,0.283-0.996,0.545-1.481,0.786
		c-0.442,0.16-1.078,0.524-1.902,1.087c-0.825,0.563-1.692,1.147-2.598,1.752c-0.906,0.602-1.74,1.138-2.504,1.598
		c-0.765,0.464-1.288,0.635-1.571,0.515c-0.12,0.12-0.202,0.172-0.241,0.15c-0.042-0.021-0.12-0.03-0.241-0.03
		c-0.644,0-1.198-0.069-1.661-0.211c-0.464-0.141-0.855-0.433-1.177-0.876c-0.12-0.485-0.12-0.966,0-1.451
		c0.12-0.482,0.28-1.026,0.482-1.628c0.12-0.322,0.253-0.623,0.394-0.906c0.138-0.283,0.25-0.584,0.331-0.906
		c0.16-0.322,0.322-0.665,0.482-1.026c0.163-0.364,0.304-0.704,0.424-1.026c0.442-0.927,0.906-1.863,1.388-2.808
		c0.485-0.945,1.005-1.821,1.571-2.628c0.322-0.202,0.623-0.322,0.906-0.361c0.16-0.081,0.331-0.069,0.512,0.03
		c0.184,0.099,0.334,0.111,0.454,0.03c0.12,0.159,0.25,0.301,0.391,0.421c0.141,0.12,0.232,0.283,0.274,0.485
		c0.039,0.28,0.069,0.503,0.09,0.662c0.018,0.163-0.012,0.343-0.09,0.545c0.039,0.283-0.042,0.584-0.244,0.906
		c-0.081,0.12-0.141,0.253-0.181,0.391c-0.039,0.141-0.099,0.295-0.181,0.454c-0.042,0.039-0.072,0.051-0.09,0.03
		c-0.021-0.021-0.051-0.009-0.09,0.03c-0.081,0.039-0.12,0.099-0.12,0.181s-0.042,0.141-0.12,0.181
		c-0.283,0.566-0.587,1.147-0.906,1.752c-0.325,0.605-0.626,1.177-0.906,1.722c-0.283,0.542-0.485,1.017-0.605,1.418
		C203.927,40.998,203.927,41.26,204.047,41.38z M206.525,26.647c-0.042-0.12,0.06-0.343,0.301-0.665
		c0.241-0.322,0.524-0.623,0.846-0.906c0.322-0.28,0.644-0.482,0.966-0.602c0.322-0.123,0.584-0.06,0.786,0.181
		c0.078,0,0.151,0.021,0.211,0.06c0.06,0.039,0.108,0.06,0.15,0.06c0.28,0.322,0.37,0.716,0.271,1.177
		c-0.099,0.463-0.313,0.777-0.632,0.936c0.039,0.081,0.039,0.132,0,0.151c-0.042,0.021-0.06,0.072-0.06,0.15
		c-0.123-0.078-0.175-0.039-0.154,0.123c0.021,0.16-0.051,0.202-0.211,0.12c0.039,0.12-0.009,0.241-0.15,0.361
		c-0.141,0.12-0.211,0.241-0.211,0.361c-0.081-0.039-0.12-0.048-0.12-0.03c0,0.021-0.042,0.03-0.12,0.03
		c-0.081,0.205-0.253,0.355-0.515,0.454c-0.262,0.099-0.451,0.232-0.575,0.391c-0.081,0-0.151,0.021-0.211,0.06
		c-0.06,0.042-0.172,0.021-0.331-0.06c-0.241-0.078-0.403-0.211-0.485-0.391c-0.081-0.181-0.111-0.391-0.09-0.635
		c0.021-0.241,0.069-0.482,0.15-0.725C206.422,27.008,206.482,26.806,206.525,26.647z"/>
	<path class="st0" d="M205.435,72.842c-0.442-0.322-0.795-0.695-1.056-1.117c-0.262-0.424-0.331-0.656-0.211-0.695
		c-0.081-2.095,0.421-4.286,1.508-6.583c1.087-2.294,2.498-4.56,4.229-6.793c1.731-2.233,3.621-4.367,5.677-6.402
		c2.053-2.032,4.003-3.874,5.857-5.523c0.28-0.202,0.641-0.515,1.087-0.936c0.442-0.424,0.786-0.716,1.026-0.876
		c0.4-0.202,0.674-0.352,0.816-0.455c0.138-0.099,0.229-0.169,0.271-0.211c0.039,0,0.129-0.181,0.271-0.542
		c0.141-0.364,0.172-0.545,0.09-0.545c0.163-0.28,0.283-0.494,0.364-0.635c0.078-0.138,0.151-0.271,0.211-0.391
		c0.06-0.12,0.111-0.25,0.151-0.391c0.039-0.141,0.12-0.373,0.241-0.695c0.081-0.202,0.153-0.403,0.214-0.605
		c0.06-0.202,0.048-0.421-0.03-0.665c-0.081,0-0.163,0.123-0.244,0.364c-0.12,0-0.181,0.021-0.181,0.06
		c-0.081,0.081-0.163,0.163-0.241,0.241c-0.081,0.081-0.163,0.163-0.241,0.241c-0.202,0.081-0.343,0.184-0.424,0.304
		c-0.361,0.361-0.734,0.674-1.117,0.936c-0.382,0.262-0.734,0.554-1.056,0.876c-0.12,0.12-0.343,0.271-0.665,0.451
		s-0.662,0.361-1.026,0.545c-0.361,0.181-0.713,0.34-1.056,0.482c-0.343,0.141-0.614,0.232-0.816,0.271
		c-0.081,0.042-0.313,0.06-0.695,0.06c-0.382,0-0.783-0.018-1.207-0.06c-0.421-0.039-0.825-0.078-1.207-0.12
		c-0.382-0.039-0.614-0.099-0.695-0.181h0.12c-0.081-0.039-0.141-0.099-0.181-0.181c-0.039-0.081-0.141-0.12-0.301-0.12
		c-0.163-0.241-0.262-0.524-0.301-0.846c-0.042-0.322-0.042-0.665,0-1.026c0.039-0.364,0.099-0.704,0.181-1.026
		c0.078-0.322,0.16-0.605,0.241-0.846c0.12-0.202,0.232-0.412,0.331-0.635c0.102-0.22,0.193-0.43,0.274-0.632
		c0.078,0,0.12-0.021,0.12-0.06c0-0.042,0.039-0.063,0.12-0.063c0.12-0.319,0.43-0.792,0.936-1.418
		c0.503-0.623,1.078-1.267,1.722-1.932c0.641-0.665,1.258-1.288,1.842-1.872c0.581-0.584,0.996-0.996,1.237-1.237
		c0.039-0.039,0.141-0.12,0.301-0.241c0.16-0.123,0.343-0.244,0.545-0.364c0.199-0.12,0.382-0.241,0.542-0.361
		c0.163-0.12,0.283-0.181,0.364-0.181c0.442-0.244,0.885-0.515,1.327-0.816c0.442-0.304,0.885-0.533,1.327-0.695
		c0.163-0.081,0.322-0.129,0.485-0.15c0.16-0.021,0.28-0.03,0.361-0.03c0.644,0.039,0.936,0.181,0.876,0.421
		c-0.06,0.244-0.271,0.515-0.632,0.816c-0.364,0.301-0.786,0.626-1.27,0.966c-0.482,0.343-0.825,0.635-1.026,0.876
		c-0.283,0.202-0.542,0.403-0.786,0.605c-0.241,0.202-0.442,0.464-0.602,0.783c-0.202,0.205-0.424,0.385-0.665,0.545
		c-0.241,0.163-0.403,0.403-0.482,0.725c-0.244,0.202-0.476,0.421-0.695,0.662c-0.223,0.244-0.412,0.485-0.575,0.725
		c-0.403,0.202-0.713,0.506-0.936,0.906c-0.22,0.403-0.494,0.746-0.816,1.026c-0.322,0.485-0.632,0.987-0.936,1.511
		c-0.301,0.524-0.554,1.108-0.753,1.752c0,0.12-0.03,0.241-0.09,0.361c-0.063,0.12-0.093,0.223-0.093,0.301
		c0.163,0.081,0.292,0.102,0.394,0.06c0.099-0.039,0.19-0.078,0.271-0.12c0.322-0.202,0.614-0.391,0.876-0.572
		c0.262-0.184,0.575-0.373,0.936-0.575c0.202-0.159,0.361-0.28,0.485-0.361c0.12-0.081,0.28-0.163,0.482-0.244
		c0.804-0.563,1.631-1.186,2.477-1.872c0.843-0.683,1.667-1.367,2.474-2.053c0.202-0.12,0.412-0.301,0.635-0.542
		c0.22-0.241,0.43-0.464,0.632-0.665c0.202-0.159,0.424-0.31,0.665-0.451c0.241-0.141,0.364-0.313,0.364-0.515
		c0.078-0.202,0.108-0.322,0.09-0.361c-0.021-0.039,0.069-0.163,0.271-0.364c0.12-0.12,0.25-0.271,0.391-0.451
		c0.141-0.181,0.373-0.271,0.695-0.271c0.12,0,0.232,0.03,0.331,0.09c0.102,0.06,0.232,0.069,0.394,0.03
		c0.039,0.081,0.12,0.111,0.241,0.09c0.12-0.021,0.22,0.009,0.301,0.09c0.322,0.322,0.515,0.605,0.575,0.846
		c0.06,0.241,0.051,0.542-0.03,0.906c-0.12,0.322-0.211,0.674-0.271,1.056c-0.06,0.382-0.172,0.734-0.334,1.056
		c-0.081,0.605-0.232,1.177-0.451,1.722c-0.223,0.542-0.394,1.096-0.515,1.658c0.244-0.4,0.665-0.804,1.27-1.207
		c0.602-0.4,1.237-0.786,1.902-1.147c0.662-0.361,1.297-0.683,1.902-0.966c0.602-0.28,1.026-0.524,1.267-0.725h0.181
		c0.081-0.078,0.172-0.159,0.271-0.241c0.102-0.081,0.193-0.12,0.274-0.12c0.199-0.159,0.421-0.313,0.662-0.454
		c0.244-0.138,0.524-0.229,0.846-0.271c0-0.039-0.021-0.06-0.06-0.06c0.807-0.442,1.61-0.864,2.417-1.267
		c0.804-0.403,1.671-0.725,2.594-0.966c0,0.039-0.021,0.06-0.06,0.06c-0.039,0-0.06,0.021-0.06,0.06
		c-0.039,0.039-0.09,0.051-0.15,0.03c-0.06-0.021-0.129-0.009-0.211,0.03c0.081,0.081,0.12,0.099,0.12,0.06
		c0-0.039,0.039-0.06,0.12-0.06c0,0.039-0.009,0.06-0.03,0.06c-0.021,0-0.03,0.039-0.03,0.12c0.16,0.042,0.25,0.03,0.271-0.03
		c0.021-0.06,0.072-0.09,0.15-0.09c-0.078,0.163-0.19,0.253-0.331,0.271c-0.141,0.021-0.271,0.111-0.391,0.274
		c0,0.078,0.039,0.078,0.12,0c-0.081,0.16-0.181,0.25-0.301,0.271c-0.123,0.021-0.223,0.069-0.304,0.151
		c0.039,0.039,0.181,0.021,0.424-0.06c-0.403,0.241-0.816,0.433-1.24,0.572c-0.421,0.145-0.795,0.373-1.117,0.695
		c-0.039,0.081,0,0.12,0.12,0.12c-0.202,0.202-0.584,0.515-1.147,0.936c-0.563,0.424-1.177,0.867-1.842,1.33
		c-0.662,0.464-1.309,0.906-1.932,1.327c-0.623,0.424-1.096,0.755-1.418,0.996c-0.364,0.241-0.725,0.485-1.087,0.725
		c-0.364,0.241-0.707,0.524-1.026,0.846c-0.244,0.081-0.455,0.181-0.635,0.301c-0.181,0.12-0.373,0.262-0.575,0.421l-0.482,0.364
		c-0.283,0.202-0.536,0.373-0.755,0.512c-0.223,0.141-0.391,0.355-0.515,0.635c-0.361,0.241-0.614,0.605-0.752,1.087
		c-0.141,0.485-0.313,0.945-0.515,1.391c-1.087,2.453-2.203,5.051-3.35,7.79c-1.147,2.736-2.468,5.364-3.955,7.88
		c-1.49,2.516-3.212,4.78-5.165,6.793c-1.95,2.014-4.235,3.543-6.853,4.59c-0.482,0.16-0.975,0.271-1.478,0.331
		C206.41,73.113,205.92,73.044,205.435,72.842z M222.465,48.083c-0.966,0.927-1.953,1.881-2.959,2.868
		c-1.008,0.987-1.932,1.902-2.778,2.748c-0.846,0.846-1.571,1.601-2.173,2.263c-0.605,0.665-1.029,1.138-1.27,1.421
		c-0.644,0.804-1.327,1.628-2.053,2.474s-1.418,1.743-2.083,2.688s-1.237,1.941-1.722,2.989c-0.482,1.047-0.804,2.176-0.966,3.383
		c0.12,0.078,0.163,0.25,0.12,0.512c-0.039,0.262,0.042,0.494,0.241,0.695c1.33-0.202,2.61-0.755,3.835-1.661
		c1.231-0.906,2.396-2.032,3.504-3.38c1.108-1.348,2.152-2.82,3.139-4.409c0.987-1.589,1.881-3.181,2.688-4.771
		c0.807-1.589,1.529-3.088,2.173-4.497c0.644-1.412,1.168-2.579,1.571-3.504c-0.081-0.163-0.069-0.283,0.03-0.361
		c0.099-0.081,0.129-0.184,0.09-0.304c-0.202,0.202-0.464,0.343-0.786,0.424C222.745,47.74,222.543,47.881,222.465,48.083z"/>
	<path class="st0" d="M243.116,41.38c0.12,0.12,0.464,0.072,1.026-0.151c0.563-0.22,1.258-0.524,2.083-0.906
		c0.825-0.382,1.743-0.816,2.748-1.297c1.005-0.485,2.014-0.906,3.019-1.27c0.283-0.078,0.614-0.199,0.996-0.361
		c0.382-0.16,0.674-0.301,0.876-0.421c0.322-0.202,0.644-0.403,0.966-0.605c0.322-0.202,0.704-0.343,1.147-0.421
		c0.163-0.042,0.244-0.111,0.244-0.214c0-0.099,0.018-0.069,0.06,0.09c0.078,0.042,0.138,0.051,0.181,0.03
		c0.039-0.018,0.081-0.009,0.12,0.03c0,0.163-0.102,0.385-0.301,0.665l-0.424,0.364c-0.322,0.28-0.662,0.554-1.026,0.813
		c-0.361,0.265-0.765,0.494-1.207,0.695c-0.361,0.322-0.795,0.626-1.297,0.906c-0.506,0.283-0.996,0.545-1.481,0.786
		c-0.442,0.16-1.078,0.524-1.902,1.087c-0.825,0.563-1.692,1.147-2.598,1.752c-0.906,0.602-1.74,1.138-2.504,1.598
		c-0.765,0.464-1.288,0.635-1.571,0.515c-0.12,0.12-0.202,0.172-0.241,0.15c-0.042-0.021-0.12-0.03-0.241-0.03
		c-0.644,0-1.198-0.069-1.661-0.211c-0.463-0.141-0.855-0.433-1.177-0.876c-0.12-0.485-0.12-0.966,0-1.451
		c0.12-0.482,0.28-1.026,0.482-1.628c0.12-0.322,0.253-0.623,0.394-0.906c0.138-0.283,0.25-0.584,0.331-0.906
		c0.16-0.322,0.322-0.665,0.482-1.026c0.163-0.364,0.304-0.704,0.424-1.026c0.442-0.927,0.906-1.863,1.388-2.808
		c0.485-0.945,1.005-1.821,1.571-2.628c0.322-0.202,0.623-0.322,0.906-0.361c0.16-0.081,0.331-0.069,0.512,0.03
		c0.184,0.099,0.334,0.111,0.454,0.03c0.12,0.159,0.25,0.301,0.391,0.421c0.141,0.12,0.232,0.283,0.274,0.485
		c0.039,0.28,0.069,0.503,0.09,0.662c0.018,0.163-0.012,0.343-0.09,0.545c0.039,0.283-0.042,0.584-0.244,0.906
		c-0.081,0.12-0.141,0.253-0.181,0.391c-0.039,0.141-0.099,0.295-0.181,0.454c-0.042,0.039-0.072,0.051-0.09,0.03
		c-0.021-0.021-0.051-0.009-0.09,0.03c-0.081,0.039-0.12,0.099-0.12,0.181s-0.042,0.141-0.12,0.181
		c-0.283,0.566-0.587,1.147-0.906,1.752c-0.325,0.605-0.626,1.177-0.906,1.722c-0.283,0.542-0.485,1.017-0.605,1.418
		C242.995,40.998,242.995,41.26,243.116,41.38z M245.593,26.647c-0.042-0.12,0.06-0.343,0.301-0.665
		c0.241-0.322,0.524-0.623,0.846-0.906c0.322-0.28,0.644-0.482,0.966-0.602c0.322-0.123,0.584-0.06,0.786,0.181
		c0.078,0,0.15,0.021,0.211,0.06c0.06,0.039,0.108,0.06,0.15,0.06c0.28,0.322,0.37,0.716,0.271,1.177
		c-0.099,0.463-0.313,0.777-0.632,0.936c0.039,0.081,0.039,0.132,0,0.151c-0.042,0.021-0.06,0.072-0.06,0.15
		c-0.123-0.078-0.175-0.039-0.154,0.123c0.021,0.16-0.051,0.202-0.211,0.12c0.039,0.12-0.009,0.241-0.151,0.361
		c-0.141,0.12-0.211,0.241-0.211,0.361c-0.081-0.039-0.12-0.048-0.12-0.03c0,0.021-0.042,0.03-0.12,0.03
		c-0.081,0.205-0.253,0.355-0.515,0.454c-0.262,0.099-0.451,0.232-0.575,0.391c-0.081,0-0.151,0.021-0.211,0.06
		c-0.06,0.042-0.172,0.021-0.331-0.06c-0.241-0.078-0.403-0.211-0.485-0.391c-0.081-0.181-0.111-0.391-0.09-0.635
		c0.021-0.241,0.069-0.482,0.15-0.725C245.49,27.008,245.551,26.806,245.593,26.647z"/>
	<path class="st0" d="M254.108,47.662h-0.06c-0.322-0.163-0.503-0.343-0.545-0.545c-0.039-0.202-0.06-0.403-0.06-0.602
		c0.081-1.49,0.253-2.941,0.515-4.349c0.262-1.409,0.554-2.757,0.876-4.045c0.4-1.571,0.864-3.1,1.388-4.59
		c0.524-1.49,1.005-2.998,1.451-4.53c0.199-0.602,0.391-1.195,0.572-1.782c0.181-0.581,0.373-1.156,0.575-1.719
		c-0.524,0.081-1.017,0.19-1.481,0.331c-0.464,0.141-1.035,0.373-1.719,0.695c-0.244,0.081-0.515,0.172-0.816,0.271
		c-0.304,0.102-0.596,0.193-0.876,0.271c-0.12,0.081-0.253,0.181-0.394,0.304c-0.141,0.12-0.292,0.202-0.452,0.241
		c-0.202,0.039-0.373,0.069-0.515,0.09c-0.138,0.021-0.229-0.009-0.271-0.09c-0.202-0.12-0.301-0.301-0.301-0.545
		c0-0.241,0.039-0.521,0.12-0.846c0.081-0.199,0.172-0.4,0.271-0.602c0.102-0.202,0.193-0.382,0.271-0.545l0.725-0.301
		c0.283-0.081,0.674-0.172,1.177-0.271c0.506-0.102,1.017-0.214,1.541-0.334c0.524-0.12,1.005-0.22,1.451-0.301
		c0.443-0.081,0.722-0.12,0.843-0.12c0.202-0.039,0.394-0.081,0.575-0.12c0.181-0.039,0.373-0.099,0.575-0.181
		c0.442-1.249,0.915-2.477,1.418-3.684c0.503-1.21,1.035-2.435,1.601-3.684c0.28-0.524,0.533-1.056,0.755-1.601
		c0.22-0.542,0.43-1.075,0.632-1.598c0.202-0.322,0.343-0.626,0.424-0.906c0.078-0.12,0.12-0.244,0.12-0.364
		c0-0.12,0.039-0.22,0.12-0.301c0.039-0.202,0.12-0.391,0.241-0.575c0.12-0.181,0.223-0.412,0.301-0.692
		c0.081-0.202,0.154-0.424,0.214-0.665c0.06-0.241,0.15-0.424,0.271-0.545c0.081-0.12,0.34-0.259,0.786-0.421
		c0.442-0.16,0.825-0.241,1.147-0.241c0.403,0,0.804,0.09,1.207,0.271s0.644,0.433,0.725,0.755c0.081,0.16,0.069,0.331-0.03,0.512
		c-0.102,0.181-0.232,0.373-0.391,0.575c-0.081,0.16-0.132,0.322-0.154,0.482c-0.018,0.163-0.069,0.343-0.15,0.545
		c-0.442,0.966-0.867,1.953-1.267,2.959c-0.403,1.005-0.867,1.971-1.391,2.898c-0.4,0.885-0.813,1.752-1.237,2.598
		c-0.421,0.846-0.837,1.71-1.237,2.595h0.06c0.482-0.12,0.966-0.211,1.448-0.271c0.485-0.06,0.948-0.129,1.391-0.211
		c0.644-0.081,1.087-0.129,1.327-0.151c0.244-0.021,0.442-0.021,0.605,0c0.16,0.021,0.37,0.021,0.635,0
		c0.259-0.021,0.731-0.069,1.418-0.15c0.443-0.042,0.897-0.072,1.357-0.09c0.464-0.021,0.957,0.069,1.481,0.271
		c-0.081,0.081-0.102,0.15-0.06,0.211c0.039,0.06,0.081,0.132,0.12,0.211c0.039,0,0.06-0.018,0.06-0.06
		c0-0.078,0.021-0.12,0.06-0.12c-0.081,0.081-0.12,0.202-0.12,0.361c0,0.163-0.021,0.265-0.06,0.304
		c-0.202,0.12-0.382,0.181-0.545,0.181c-0.16,0-0.301,0.039-0.421,0.12l-0.06,0.12c-1.451,0.202-3.031,0.403-4.741,0.605
		c-1.713,0.202-3.332,0.482-4.861,0.846l-0.181,0.602c-0.686,2.134-1.391,4.268-2.113,6.402c-0.725,2.134-1.391,4.268-1.993,6.402
		c-0.081,0.322-0.205,0.644-0.364,0.966c-0.16,0.322-0.283,0.662-0.361,1.026c-0.202,0.322-0.334,0.683-0.394,1.087
		c-0.06,0.403-0.172,0.765-0.331,1.087c-0.039,0.081-0.111,0.181-0.211,0.301c-0.102,0.12-0.15,0.241-0.15,0.364
		c-0.081,0.202-0.141,0.4-0.184,0.602c-0.039,0.202-0.081,0.403-0.12,0.605c-0.039,0.202-0.06,0.421-0.06,0.665
		c0,0.241-0.021,0.421-0.06,0.542l-0.361,0.605c-0.081,0.202-0.12,0.4-0.12,0.602s-0.021,0.403-0.06,0.605
		c-0.202,0.081-0.283,0.151-0.244,0.211c0.042,0.06-0.039,0.111-0.241,0.15c-0.12,0.081-0.292,0.132-0.512,0.154
		C254.46,47.529,254.267,47.58,254.108,47.662z"/>
	<path class="st0" d="M283.093,37.879c1.165-0.442,1.86-0.575,2.083-0.394c0.22,0.181,0.108,0.455-0.334,0.816
		c-0.12,0.12-0.271,0.202-0.451,0.241c-0.181,0.042-0.331,0.223-0.455,0.545c-0.602,0.524-1.026,0.855-1.267,0.996
		c-0.241,0.141-0.403,0.19-0.482,0.151c-0.644,0.283-1.231,0.644-1.752,1.087c-0.524,0.442-1.056,0.846-1.601,1.207
		c-0.542,0.364-1.126,0.644-1.752,0.846c-0.623,0.202-1.357,0.202-2.203,0c-0.081,0-0.172-0.03-0.271-0.09
		c-0.102-0.06-0.211-0.111-0.334-0.15c-0.361-0.16-0.614-0.352-0.752-0.575c-0.141-0.22-0.274-0.473-0.394-0.752
		c-0.081-0.322-0.129-0.716-0.15-1.18c-0.021-0.461,0.009-0.936,0.09-1.418c-0.081-0.039-0.129-0.03-0.151,0.03
		c-0.021,0.06-0.051,0.09-0.09,0.09c-0.081,0.042-0.163,0.09-0.241,0.151c-0.081,0.06-0.184,0.132-0.304,0.211
		c-0.202,0.244-0.391,0.463-0.572,0.665c-0.181,0.202-0.415,0.361-0.695,0.485c-0.081,0.16-0.193,0.28-0.331,0.361
		c-0.141,0.081-0.253,0.163-0.334,0.241c-0.039,0-0.051,0.03-0.03,0.09c0.021,0.06,0.009,0.09-0.03,0.09
		c-0.081,0.042-0.202,0.093-0.361,0.153c-0.163,0.06-0.283,0.151-0.361,0.271c-0.927,0.644-1.914,1.189-2.962,1.631
		c-0.28,0.202-0.572,0.37-0.873,0.512c-0.304,0.141-0.596,0.193-0.876,0.151c-0.202,0-0.373,0-0.515,0s-0.313-0.039-0.512-0.12
		c-0.325-0.039-0.644-0.069-0.966-0.09c-0.322-0.021-0.584-0.151-0.786-0.391c-0.442-0.283-0.563-0.807-0.364-1.571
		c0-0.039,0.021-0.06,0.06-0.06c0.042,0,0.06-0.039,0.06-0.12c0.042-0.442,0.175-0.855,0.394-1.237
		c0.223-0.382,0.451-0.734,0.695-1.059c0.322-0.563,0.683-1.087,1.087-1.568c0.4-0.485,0.786-0.987,1.147-1.511
		c0.322-0.28,0.825-0.743,1.511-1.388c0.683-0.644,1.409-1.3,2.173-1.962c0.764-0.665,1.469-1.249,2.113-1.752
		c0.644-0.503,1.087-0.774,1.327-0.816c0.442-0.202,0.795-0.451,1.056-0.755c0.262-0.301,0.674-0.533,1.24-0.692
		c0.039,0,0.06-0.012,0.06-0.03c0-0.021,0.018-0.03,0.06-0.03c0.078,0,0.172,0.009,0.271,0.03c0.099,0.018,0.19-0.012,0.271-0.093
		c0.244,0.123,0.524,0.184,0.846,0.184c0.163,0.202,0.343,0.391,0.545,0.572c0.202,0.181,0.301,0.394,0.301,0.635
		c0.12,0.12,0.141,0.283,0.06,0.482c-0.081,0.202-0.202,0.343-0.361,0.424c-0.12,0.12-0.262,0.172-0.424,0.15
		c-0.16-0.021-0.322,0.009-0.482,0.09c-0.403,0.163-0.786,0.403-1.147,0.725l-0.725,0.482l-0.12,0.12
		c-0.12,0-0.253,0.03-0.394,0.093c-0.141,0.06-0.25,0.211-0.331,0.451c-0.322,0.081-0.644,0.232-0.966,0.451
		c-0.322,0.223-0.644,0.433-0.966,0.635c-0.202,0.202-0.382,0.373-0.542,0.515c-0.163,0.141-0.343,0.292-0.545,0.451
		c-0.322,0.283-0.665,0.584-1.026,0.906c-0.361,0.322-0.704,0.644-1.026,0.966c-0.202,0.163-0.394,0.352-0.575,0.575
		c-0.181,0.22-0.412,0.391-0.692,0.512c0,0.163-0.081,0.304-0.244,0.424v0.06v0.06c-0.241,0.12-0.433,0.292-0.572,0.512
		c-0.141,0.223-0.295,0.433-0.454,0.635c-0.081,0.361-0.241,0.686-0.482,0.966c-0.244,0.283-0.385,0.584-0.424,0.906
		c0.403-0.12,0.725-0.301,0.966-0.545c1.369-0.804,2.679-1.658,3.925-2.564c1.249-0.906,2.537-1.863,3.865-2.868
		c0.364-0.322,0.716-0.584,1.056-0.786c0.343-0.202,0.674-0.524,0.996-0.966h0.184v-0.06c0.039-0.12,0.099-0.223,0.181-0.301
		c0.081-0.081,0.141-0.202,0.181-0.364c0.039-0.078,0.06-0.181,0.06-0.301c0-0.12,0.039-0.223,0.12-0.301
		c0.12-0.042,0.262-0.063,0.424-0.063c0.16,0,0.28,0,0.361,0h0.786c0.16,0.081,0.382,0.184,0.665,0.304
		c0.28,0.12,0.421,0.403,0.421,0.846c-0.12,0.361-0.292,0.704-0.515,1.026c-0.22,0.322-0.451,0.662-0.692,1.026
		c-0.081,0.361-0.223,0.683-0.424,0.966v0.301c-0.16,0.081-0.28,0.262-0.361,0.545c-0.042,0.202-0.072,0.361-0.09,0.482
		c-0.021,0.12-0.09,0.301-0.211,0.545l-0.364,1.327c0,0.524,0.099,0.825,0.304,0.906c0.199,0.081,0.451,0.06,0.752-0.06
		c0.304-0.12,0.635-0.292,0.996-0.515c0.364-0.22,0.686-0.391,0.966-0.512c0.686-0.241,1.391-0.605,2.116-1.087
		C281.883,38.602,282.527,38.202,283.093,37.879z"/>
	<path class="st0" d="M299.518,8.711c0.199,0.202,0.34,0.364,0.421,0.485c0.081,0.12,0.081,0.343,0,0.662
		c0,0.283-0.069,0.554-0.211,0.816c-0.141,0.262-0.271,0.494-0.394,0.695c-0.078,0.361-0.19,0.674-0.331,0.936
		s-0.253,0.593-0.331,0.996c-0.403,1.047-0.795,2.104-1.177,3.169c-0.385,1.069-0.798,2.065-1.24,2.989
		c-0.442,0.566-0.774,1.15-0.996,1.752c-0.22,0.605-0.433,1.228-0.632,1.872c-1.047,2.537-2.095,5.114-3.142,7.729
		c-1.047,2.619-2.032,5.315-2.959,8.094c-0.12,0.722-0.31,1.448-0.572,2.173c-0.262,0.725-0.476,1.469-0.635,2.233
		c0,0.283-0.039,0.524-0.12,0.725c-0.202,0.644-0.283,1.327-0.241,2.053c-0.202,0-0.343,0.069-0.424,0.211
		c-0.081,0.141-0.202,0.232-0.361,0.274c-0.322,0-0.536-0.132-0.635-0.394s-0.271-0.373-0.512-0.331
		c-0.081-0.202-0.193-0.364-0.334-0.485c-0.141-0.12-0.232-0.301-0.271-0.542c0.039-0.563,0.12-1.168,0.241-1.812
		c0.12-0.644,0.262-1.207,0.424-1.692c0.28-1.731,0.662-3.371,1.147-4.921c0.482-1.55,0.966-3.049,1.448-4.5
		c-0.039,0-0.081,0.021-0.12,0.06l0.06-0.06v-0.12c0.163-0.078,0.262-0.211,0.304-0.391c0.039-0.181,0.099-0.352,0.181-0.515
		c0.159-0.563,0.4-1.276,0.725-2.143c0.319-0.864,0.662-1.752,1.026-2.658c0.361-0.906,0.713-1.782,1.056-2.625
		c0.34-0.846,0.614-1.511,0.816-1.996v-0.06c0.482-1.005,0.915-2.032,1.297-3.079c0.382-1.044,0.774-2.113,1.177-3.2
		c0.322-0.807,0.623-1.64,0.906-2.507c0.283-0.864,0.545-1.679,0.786-2.444c0.202-0.605,0.34-1.21,0.421-1.812
		c0.081-0.241,0.373-0.442,0.876-0.605c0.503-0.16,0.915-0.202,1.24-0.12c0.319,0.081,0.551,0.202,0.692,0.361
		C299.265,8.148,299.397,8.389,299.518,8.711z"/>
</g>
</svg>
